<svg xmlns="http://www.w3.org/2000/svg" xmlns:xlink="http://www.w3.org/1999/xlink" width="50" height="50" version="1.1"
    viewBox="0 0 37.5 37.5">
    <g id="surface13551">
        <path style="stroke:none;fill-rule:nonzero;fill:#fff;fill-opacity:1"
            d="M 18.5 2.3125 C 9.570312 2.3125 2.3125 9.570312 2.3125 18.5 C 2.3125 18.925781 2.65625 19.269531 3.082031 19.269531 L 11.5625 19.269531 C 11.839844 19.273438 12.097656 19.128906 12.238281 18.886719 C 12.378906 18.648438 12.378906 18.351562 12.238281 18.113281 C 12.097656 17.871094 11.839844 17.726562 11.5625 17.730469 L 3.929688 17.730469 C 4.339844 10 10.667969 3.855469 18.5 3.855469 C 20.117188 3.855469 21.667969 4.117188 23.121094 4.597656 C 23.523438 4.730469 23.960938 4.511719 24.09375 4.109375 C 24.230469 3.707031 24.011719 3.269531 23.605469 3.132812 C 22 2.601562 20.28125 2.3125 18.5 2.3125 Z M 26.207031 4.367188 C 25.925781 4.359375 25.660156 4.507812 25.523438 4.753906 L 22.765625 9.570312 C 22.621094 9.8125 22.617188 10.109375 22.757812 10.351562 C 22.894531 10.59375 23.15625 10.742188 23.433594 10.738281 C 23.710938 10.734375 23.96875 10.582031 24.101562 10.335938 L 26.4375 6.261719 C 29.667969 8.359375 32.050781 11.640625 32.847656 15.546875 C 32.902344 15.820312 33.09375 16.046875 33.359375 16.136719 C 33.625 16.226562 33.914062 16.164062 34.121094 15.980469 C 34.328125 15.792969 34.421875 15.507812 34.359375 15.238281 C 33.414062 10.628906 30.53125 6.742188 26.574219 4.46875 C 26.464844 4.402344 26.335938 4.367188 26.207031 4.367188 Z M 18.488281 8.46875 C 18.0625 8.476562 17.722656 8.824219 17.730469 9.25 L 17.730469 10.859375 C 15.121094 11.148438 13.351562 12.757812 13.351562 14.96875 C 13.351562 17.078125 14.636719 18.421875 17.609375 19.070312 L 19.253906 19.429688 C 21.308594 19.882812 22.132812 20.707031 22.132812 21.949219 C 22.132812 23.410156 20.671875 24.46875 18.65625 24.46875 C 16.785156 24.46875 15.324219 23.75 14.875 22.21875 C 14.730469 21.722656 14.441406 21.488281 13.980469 21.488281 C 13.457031 21.488281 13.125 21.855469 13.125 22.441406 C 13.125 22.660156 13.167969 22.886719 13.230469 23.09375 C 13.726562 24.695312 15.382812 25.863281 17.730469 26.085938 L 17.730469 27.75 C 17.726562 28.027344 17.871094 28.285156 18.113281 28.425781 C 18.351562 28.566406 18.648438 28.566406 18.886719 28.425781 C 19.128906 28.285156 19.273438 28.027344 19.269531 27.75 L 19.269531 26.105469 C 22.179688 25.871094 24.03125 24.214844 24.03125 21.671875 C 24.03125 19.574219 22.808594 18.339844 19.714844 17.664062 L 18.070312 17.304688 C 16.042969 16.863281 15.253906 16.0625 15.253906 14.886719 C 15.253906 13.375 16.683594 12.472656 18.53125 12.472656 C 20.136719 12.472656 21.359375 13.128906 21.875 14.628906 C 22.039062 15.105469 22.324219 15.351562 22.796875 15.351562 C 23.292969 15.351562 23.644531 15.019531 23.644531 14.519531 C 23.644531 14.324219 23.621094 14.167969 23.589844 14.054688 C 23.109375 12.242188 21.421875 11.058594 19.269531 10.851562 L 19.269531 9.25 C 19.273438 9.042969 19.191406 8.839844 19.042969 8.695312 C 18.898438 8.546875 18.695312 8.464844 18.488281 8.46875 Z M 26.207031 17.730469 C 25.929688 17.726562 25.671875 17.871094 25.53125 18.113281 C 25.390625 18.351562 25.390625 18.648438 25.53125 18.886719 C 25.671875 19.128906 25.929688 19.273438 26.207031 19.269531 L 33.0625 19.269531 C 32.851562 23.246094 31.121094 26.808594 28.367188 29.324219 C 28.152344 29.507812 28.054688 29.792969 28.113281 30.066406 C 28.171875 30.34375 28.375 30.566406 28.644531 30.648438 C 28.910156 30.730469 29.203125 30.65625 29.40625 30.460938 C 32.648438 27.503906 34.6875 23.234375 34.6875 18.5 C 34.6875 18.074219 34.34375 17.730469 33.917969 17.730469 Z M 3.394531 20.90625 C 3.164062 20.914062 2.945312 21.019531 2.804688 21.203125 C 2.660156 21.386719 2.609375 21.621094 2.660156 21.847656 C 4.203125 29.183594 10.714844 34.6875 18.5 34.6875 C 21.445312 34.6875 24.214844 33.898438 26.597656 32.519531 C 26.800781 32.402344 26.9375 32.195312 26.972656 31.964844 C 27.007812 31.730469 26.933594 31.496094 26.769531 31.324219 L 26.824219 31.378906 L 24.101562 26.660156 C 23.886719 26.292969 23.417969 26.164062 23.046875 26.378906 C 22.679688 26.589844 22.550781 27.0625 22.765625 27.429688 L 25.109375 31.484375 C 23.113281 32.503906 20.894531 33.144531 18.5 33.144531 C 11.441406 33.144531 5.5625 28.164062 4.167969 21.53125 C 4.09375 21.164062 3.769531 20.898438 3.394531 20.90625 Z M 3.394531 20.90625" />
    </g>
</svg>