<?xml version="1.0" encoding="UTF-8"?>
<svg xmlns="http://www.w3.org/2000/svg" xmlns:xlink="http://www.w3.org/1999/xlink" width="36pt" height="36pt"
    viewBox="0 0 36 36" version="1.1">
    <g id="surface45860">
        <path style=" stroke:none;fill-rule:nonzero;fill:rgb(0%,0%,0%);fill-opacity:1;"
            d="M 18 2.25 C 9.308594 2.25 2.25 9.308594 2.25 18 C 2.25 18.414062 2.585938 18.75 3 18.75 L 11.25 18.75 C 11.519531 18.753906 11.773438 18.613281 11.910156 18.378906 C 12.042969 18.144531 12.042969 17.855469 11.910156 17.621094 C 11.773438 17.386719 11.519531 17.246094 11.25 17.25 L 3.824219 17.25 C 4.222656 9.726562 10.378906 3.75 18 3.75 C 19.574219 3.75 21.082031 4.003906 22.496094 4.472656 C 22.890625 4.605469 23.3125 4.390625 23.445312 4 C 23.574219 3.605469 23.363281 3.179688 22.96875 3.050781 C 21.40625 2.53125 19.734375 2.25 18 2.25 Z M 25.5 4.25 C 25.226562 4.242188 24.96875 4.386719 24.832031 4.625 L 22.148438 9.3125 C 22.007812 9.546875 22.007812 9.835938 22.140625 10.070312 C 22.277344 10.308594 22.527344 10.453125 22.800781 10.449219 C 23.070312 10.445312 23.320312 10.296875 23.449219 10.058594 L 25.722656 6.09375 C 28.867188 8.132812 31.183594 11.324219 31.960938 15.128906 C 32.011719 15.394531 32.199219 15.613281 32.457031 15.699219 C 32.714844 15.789062 33 15.730469 33.199219 15.546875 C 33.402344 15.367188 33.488281 15.089844 33.429688 14.824219 C 32.511719 10.339844 29.707031 6.5625 25.855469 4.347656 C 25.75 4.285156 25.625 4.25 25.5 4.25 Z M 17.988281 8.238281 C 17.574219 8.246094 17.246094 8.585938 17.25 9 L 17.25 10.566406 C 14.710938 10.847656 12.992188 12.414062 12.992188 14.566406 C 12.992188 16.617188 14.242188 17.925781 17.132812 18.554688 L 18.730469 18.90625 C 20.734375 19.34375 21.535156 20.148438 21.535156 21.355469 C 21.53125 22.777344 20.113281 23.808594 18.152344 23.808594 C 16.332031 23.804688 14.910156 23.105469 14.472656 21.617188 C 14.332031 21.136719 14.050781 20.90625 13.601562 20.90625 C 13.09375 20.90625 12.773438 21.265625 12.773438 21.835938 C 12.773438 22.046875 12.8125 22.265625 12.871094 22.46875 C 13.355469 24.03125 14.96875 25.164062 17.25 25.382812 L 17.25 27 C 17.246094 27.269531 17.386719 27.523438 17.621094 27.660156 C 17.855469 27.792969 18.144531 27.792969 18.378906 27.660156 C 18.613281 27.523438 18.753906 27.269531 18.75 27 L 18.75 25.398438 C 21.582031 25.171875 23.382812 23.558594 23.382812 21.085938 C 23.382812 19.046875 22.195312 17.84375 19.183594 17.183594 L 17.582031 16.835938 C 15.609375 16.40625 14.839844 15.625 14.839844 14.484375 C 14.839844 13.015625 16.230469 12.136719 18.03125 12.136719 C 19.59375 12.132812 20.78125 12.777344 21.28125 14.234375 C 21.441406 14.695312 21.722656 14.933594 22.183594 14.933594 C 22.664062 14.933594 23.003906 14.617188 23.003906 14.125 C 23.003906 13.9375 22.984375 13.785156 22.953125 13.675781 C 22.484375 11.910156 20.84375 10.761719 18.75 10.558594 L 18.75 9 C 18.753906 8.796875 18.671875 8.601562 18.53125 8.457031 C 18.386719 8.316406 18.191406 8.238281 17.988281 8.238281 Z M 25.5 17.25 C 25.230469 17.246094 24.976562 17.386719 24.839844 17.621094 C 24.707031 17.855469 24.707031 18.144531 24.839844 18.378906 C 24.976562 18.613281 25.230469 18.753906 25.5 18.75 L 32.167969 18.75 C 31.964844 22.617188 30.28125 26.085938 27.601562 28.53125 C 27.390625 28.707031 27.296875 28.984375 27.351562 29.253906 C 27.410156 29.523438 27.605469 29.738281 27.867188 29.820312 C 28.128906 29.898438 28.414062 29.828125 28.613281 29.636719 C 31.765625 26.757812 33.75 22.605469 33.75 18 C 33.75 17.585938 33.414062 17.25 33 17.25 Z M 3.300781 20.34375 C 3.078125 20.347656 2.867188 20.453125 2.726562 20.628906 C 2.589844 20.808594 2.539062 21.039062 2.585938 21.257812 C 4.089844 28.394531 10.425781 33.75 18 33.75 C 20.867188 33.75 23.5625 32.980469 25.878906 31.640625 C 26.074219 31.527344 26.210938 31.328125 26.242188 31.101562 C 26.277344 30.875 26.203125 30.644531 26.046875 30.480469 L 26.101562 30.53125 L 23.449219 25.941406 C 23.242188 25.582031 22.785156 25.457031 22.425781 25.664062 C 22.066406 25.871094 21.941406 26.332031 22.148438 26.691406 L 24.429688 30.632812 C 22.488281 31.625 20.332031 32.25 18 32.25 C 11.132812 32.25 5.414062 27.402344 4.054688 20.949219 C 3.984375 20.589844 3.667969 20.335938 3.300781 20.34375 Z M 3.300781 20.34375 " />
    </g>
</svg>