<?xml version="1.0" encoding="UTF-8"?>
<svg xmlns="http://www.w3.org/2000/svg" xmlns:xlink="http://www.w3.org/1999/xlink" width="75pt" height="75pt"
    viewBox="0 0 75 75" version="1.1">
    <g id="surface4209">
        <path style=" stroke:none;fill-rule:nonzero;fill:rgb(96.862745%,100%,99.215686%);fill-opacity:1;"
            d="M 22.523438 1.136719 L 21.78125 1.542969 L 18.804688 3.167969 L 18.027344 3.589844 L 18.027344 4.480469 L 18 53.089844 L 18 53.953125 L 18.746094 54.386719 L 51.722656 73.480469 L 52.472656 73.914062 L 56.222656 71.746094 L 56.972656 71.316406 L 56.972656 70.449219 L 57 35.769531 L 57 35.363281 L 56.796875 35.015625 L 44.796875 14.296875 L 44.597656 13.953125 L 44.253906 13.753906 L 23.253906 1.558594 Z M 22.496094 3.289062 L 42.75 15.050781 L 40.5 16.347656 L 20.285156 4.496094 Z M 19.902344 5.136719 L 40.125 16.996094 L 40.125 30.570312 C 40.125 30.707031 40.195312 30.828125 40.3125 30.894531 L 52.125 37.714844 L 52.097656 71.53125 L 19.875 52.871094 Z M 43.363281 15.5625 L 54.988281 35.628906 L 52.636719 36.988281 L 41.011719 16.917969 Z M 40.875 18.179688 L 51.472656 36.472656 L 40.875 30.355469 Z M 32.972656 32.792969 C 32.914062 32.800781 32.859375 32.816406 32.8125 32.84375 L 26.8125 36.308594 C 26.695312 36.378906 26.625 36.5 26.625 36.636719 L 26.625 43.5625 C 26.625 43.628906 26.640625 43.691406 26.675781 43.75 L 32.675781 54.144531 C 32.707031 54.199219 32.753906 54.246094 32.8125 54.277344 L 38.8125 57.746094 C 38.929688 57.8125 39.070312 57.8125 39.1875 57.746094 L 45.1875 54.277344 C 45.304688 54.210938 45.375 54.089844 45.375 53.957031 L 45.375 47.027344 C 45.375 46.960938 45.359375 46.898438 45.324219 46.839844 L 39.324219 36.449219 C 39.292969 36.390625 39.246094 36.34375 39.1875 36.308594 L 33.1875 32.84375 C 33.121094 32.804688 33.046875 32.789062 32.972656 32.792969 Z M 33 33.605469 L 35.625 35.117188 L 35.625 45.292969 C 35.625 45.425781 35.695312 45.550781 35.8125 45.617188 L 44.625 50.707031 L 44.625 53.738281 L 39 56.984375 L 33.277344 53.679688 L 27.375 43.457031 L 27.375 36.847656 Z M 36.375 35.550781 L 38.722656 36.910156 L 44.625 47.128906 L 44.625 49.839844 L 36.375 45.074219 Z M 55.125 36.417969 L 55.097656 70.234375 L 52.847656 71.53125 L 52.875 37.714844 Z M 55.125 36.417969 " />
    </g>
</svg>