<svg xmlns="http://www.w3.org/2000/svg" xmlns:xlink="http://www.w3.org/1999/xlink" width="48" height="48" version="1.1"
    viewBox="0 0 36 36">
    <g id="surface22784">
        <path style="stroke:none;fill-rule:nonzero;fill:#000;fill-opacity:1"
            d="M 12.785156 5.25 C 10.203125 5.25 7.90625 6.90625 7.089844 9.351562 L 5.136719 15.210938 C 3.878906 16.019531 3 17.355469 3 18.925781 L 3 30 C 3 31.234375 4.015625 32.25 5.25 32.25 L 6.75 32.25 C 7.984375 32.25 9 31.234375 9 30 L 9 27.75 L 27 27.75 L 27 30 C 27 31.234375 28.015625 32.25 29.25 32.25 L 30.75 32.25 C 31.984375 32.25 33 31.234375 33 30 L 33 18.925781 C 33 16.707031 31.375 14.808594 29.175781 14.480469 C 26.285156 14.042969 21.914062 13.5 18 13.5 C 15.109375 13.5 11.972656 13.796875 9.359375 14.125 C 9.09375 14.15625 8.859375 14.328125 8.753906 14.578125 C 8.648438 14.824219 8.683594 15.113281 8.847656 15.328125 C 9.011719 15.539062 9.28125 15.652344 9.546875 15.613281 C 12.121094 15.289062 15.214844 15 18 15 C 21.773438 15 26.101562 15.53125 28.953125 15.960938 C 30.425781 16.183594 31.5 17.4375 31.5 18.925781 L 31.5 30 C 31.5 30.421875 31.171875 30.75 30.75 30.75 L 29.25 30.75 C 28.828125 30.75 28.5 30.421875 28.5 30 L 28.5 27 C 28.5 26.585938 28.164062 26.25 27.75 26.25 L 8.25 26.25 C 7.835938 26.25 7.5 26.585938 7.5 27 L 7.5 30 C 7.5 30.421875 7.171875 30.75 6.75 30.75 L 5.25 30.75 C 4.828125 30.75 4.5 30.421875 4.5 30 L 4.5 18.925781 C 4.5 17.761719 5.160156 16.746094 6.144531 16.246094 C 6.320312 16.15625 6.457031 16.003906 6.519531 15.816406 L 8.515625 9.824219 C 9.128906 7.984375 10.84375 6.75 12.785156 6.75 L 23.214844 6.75 C 25.15625 6.75 26.871094 7.988281 27.484375 9.824219 L 28.511719 12.910156 C 28.59375 13.171875 28.808594 13.371094 29.074219 13.429688 C 29.339844 13.484375 29.617188 13.394531 29.796875 13.1875 C 29.976562 12.980469 30.03125 12.691406 29.933594 12.4375 L 28.90625 9.351562 C 28.089844 6.90625 25.796875 5.25 23.214844 5.25 Z M 8.25 19.5 C 7.421875 19.5 6.75 20.171875 6.75 21 C 6.75 21.828125 7.421875 22.5 8.25 22.5 C 9.078125 22.5 9.75 21.828125 9.75 21 C 9.75 20.171875 9.078125 19.5 8.25 19.5 Z M 27.75 19.5 C 26.921875 19.5 26.25 20.171875 26.25 21 C 26.25 21.828125 26.921875 22.5 27.75 22.5 C 28.578125 22.5 29.25 21.828125 29.25 21 C 29.25 20.171875 28.578125 19.5 27.75 19.5 Z M 13.5 21.75 C 13.230469 21.746094 12.976562 21.886719 12.839844 22.121094 C 12.707031 22.355469 12.707031 22.644531 12.839844 22.878906 C 12.976562 23.113281 13.230469 23.253906 13.5 23.25 L 22.5 23.25 C 22.769531 23.253906 23.023438 23.113281 23.160156 22.878906 C 23.292969 22.644531 23.292969 22.355469 23.160156 22.121094 C 23.023438 21.886719 22.769531 21.746094 22.5 21.75 Z M 13.5 21.75" />
    </g>
</svg>