<svg xmlns="http://www.w3.org/2000/svg" xmlns:xlink="http://www.w3.org/1999/xlink" width="50" height="50" version="1.1" viewBox="0 0 37.5 37.5"><g id="surface13539"><path style="stroke:none;fill-rule:nonzero;fill:#fff;fill-opacity:1" d="M 18.335938 4.625 C 17.003906 4.636719 15.640625 4.808594 14.261719 5.15625 C 7.730469 6.816406 2.722656 12.316406 1.734375 18.988281 C 1.195312 22.632812 1.816406 26.121094 3.292969 29.101562 C 3.292969 29.101562 3.296875 29.101562 3.296875 29.101562 C 4.070312 30.664062 5.683594 31.605469 7.40625 31.605469 L 10.019531 31.605469 C 10.277344 31.605469 10.519531 31.476562 10.664062 31.261719 L 12.089844 29.125 C 12.089844 29.125 12.089844 29.125 12.089844 29.121094 C 12.65625 28.265625 13.617188 27.75 14.652344 27.75 L 22.347656 27.75 C 23.382812 27.75 24.34375 28.265625 24.910156 29.125 L 26.335938 31.261719 C 26.480469 31.476562 26.722656 31.605469 26.980469 31.605469 L 29.59375 31.605469 C 31.304688 31.605469 32.921875 30.671875 33.6875 29.117188 L 33.691406 29.117188 C 34.820312 26.847656 35.457031 24.277344 35.457031 21.566406 C 35.453125 12.242188 27.65625 4.539062 18.335938 4.625 Z M 18.359375 6.164062 C 26.863281 6.078125 33.910156 13.101562 33.917969 21.566406 C 33.917969 24.039062 33.335938 26.371094 32.308594 28.433594 C 31.8125 29.4375 30.746094 30.0625 29.59375 30.0625 L 27.390625 30.0625 L 26.195312 28.273438 C 25.34375 26.984375 23.898438 26.207031 22.347656 26.207031 L 14.652344 26.207031 C 13.101562 26.207031 11.65625 26.984375 10.804688 28.273438 L 9.609375 30.0625 L 7.40625 30.0625 C 6.246094 30.0625 5.179688 29.433594 4.675781 28.417969 C 3.332031 25.710938 2.765625 22.550781 3.257812 19.214844 C 4.152344 13.167969 8.71875 8.15625 14.644531 6.652344 C 15.902344 6.332031 17.144531 6.175781 18.359375 6.164062 Z M 18.488281 8.46875 C 18.0625 8.476562 17.722656 8.824219 17.730469 9.25 L 17.730469 11.5625 C 17.726562 11.839844 17.871094 12.097656 18.113281 12.238281 C 18.351562 12.378906 18.648438 12.378906 18.886719 12.238281 C 19.128906 12.097656 19.273438 11.839844 19.269531 11.5625 L 19.269531 9.25 C 19.273438 9.042969 19.191406 8.839844 19.042969 8.695312 C 18.898438 8.546875 18.695312 8.464844 18.488281 8.46875 Z M 11.785156 10.457031 C 11.496094 10.457031 11.234375 10.613281 11.097656 10.863281 C 10.960938 11.117188 10.976562 11.421875 11.136719 11.660156 L 12.398438 13.597656 C 12.542969 13.839844 12.808594 13.984375 13.089844 13.972656 C 13.371094 13.960938 13.625 13.796875 13.75 13.542969 C 13.871094 13.289062 13.851562 12.988281 13.6875 12.757812 L 12.429688 10.820312 C 12.289062 10.597656 12.046875 10.460938 11.785156 10.457031 Z M 25.191406 10.460938 C 24.9375 10.46875 24.707031 10.605469 24.570312 10.820312 L 18.582031 20.042969 C 18.554688 20.042969 18.527344 20.042969 18.5 20.042969 C 17.648438 20.042969 16.957031 20.730469 16.957031 21.582031 C 16.957031 22.433594 17.648438 23.125 18.5 23.125 C 19.035156 23.125 19.53125 22.84375 19.8125 22.386719 C 20.089844 21.929688 20.113281 21.363281 19.871094 20.882812 L 25.863281 11.660156 C 26.023438 11.417969 26.035156 11.105469 25.894531 10.855469 C 25.753906 10.601562 25.480469 10.449219 25.191406 10.460938 Z M 7.246094 15.792969 C 6.875 15.777344 6.546875 16.03125 6.46875 16.394531 C 6.386719 16.757812 6.578125 17.125 6.917969 17.273438 L 9.03125 18.210938 C 9.421875 18.386719 9.875 18.210938 10.050781 17.820312 C 10.222656 17.433594 10.046875 16.976562 9.660156 16.804688 L 7.546875 15.863281 C 7.453125 15.820312 7.351562 15.796875 7.246094 15.792969 Z M 29.804688 15.792969 C 29.683594 15.789062 29.5625 15.8125 29.453125 15.863281 L 27.339844 16.804688 C 27.082031 16.910156 26.902344 17.148438 26.871094 17.429688 C 26.839844 17.707031 26.960938 17.980469 27.1875 18.144531 C 27.417969 18.304688 27.714844 18.332031 27.96875 18.210938 L 30.082031 17.273438 C 30.414062 17.128906 30.601562 16.777344 30.535156 16.421875 C 30.46875 16.066406 30.167969 15.804688 29.804688 15.792969 Z M 8.613281 22.378906 C 8.566406 22.378906 8.523438 22.382812 8.480469 22.390625 L 6.199219 22.75 C 5.917969 22.785156 5.679688 22.972656 5.578125 23.234375 C 5.472656 23.492188 5.519531 23.792969 5.699219 24.007812 C 5.878906 24.226562 6.164062 24.328125 6.4375 24.273438 L 8.722656 23.914062 C 9.125 23.855469 9.414062 23.496094 9.382812 23.09375 C 9.355469 22.6875 9.015625 22.375 8.613281 22.378906 Z M 28.363281 22.378906 C 27.964844 22.386719 27.636719 22.703125 27.613281 23.105469 C 27.589844 23.503906 27.878906 23.855469 28.277344 23.914062 L 30.5625 24.273438 C 30.835938 24.328125 31.121094 24.226562 31.300781 24.007812 C 31.480469 23.792969 31.527344 23.492188 31.421875 23.234375 C 31.320312 22.972656 31.082031 22.785156 30.800781 22.75 L 28.519531 22.390625 C 28.46875 22.378906 28.414062 22.375 28.363281 22.378906 Z M 28.363281 22.378906"/></g></svg>