<?xml version="1.0" encoding="UTF-8"?>
<svg xmlns="http://www.w3.org/2000/svg" xmlns:xlink="http://www.w3.org/1999/xlink" width="36pt" height="36pt"
    viewBox="0 0 36 36" version="1.1">
    <g id="surface46460">
        <path style=" stroke:none;fill-rule:nonzero;fill:rgb(0%,0%,0%);fill-opacity:1;"
            d="M 17.839844 4.5 C 16.542969 4.511719 15.21875 4.679688 13.878906 5.019531 C 7.523438 6.632812 2.648438 11.980469 1.6875 18.472656 C 1.164062 22.023438 1.765625 25.414062 3.203125 28.316406 C 3.207031 28.316406 3.207031 28.316406 3.207031 28.316406 C 3.960938 29.835938 5.53125 30.75 7.207031 30.75 L 9.75 30.75 C 10 30.75 10.234375 30.625 10.375 30.417969 L 11.761719 28.339844 C 11.761719 28.339844 11.761719 28.335938 11.761719 28.335938 C 12.3125 27.503906 13.246094 27 14.257812 27 L 21.742188 27 C 22.753906 27 23.6875 27.503906 24.238281 28.335938 C 24.238281 28.335938 24.238281 28.339844 24.238281 28.339844 L 25.625 30.417969 C 25.765625 30.625 26 30.75 26.25 30.75 L 28.792969 30.75 C 30.457031 30.75 32.03125 29.84375 32.777344 28.332031 L 32.78125 28.332031 C 33.878906 26.121094 34.5 23.621094 34.5 20.984375 C 34.492188 11.910156 26.910156 4.414062 17.839844 4.5 Z M 17.863281 5.996094 C 26.136719 5.914062 32.992188 12.746094 33 20.984375 C 33 23.386719 32.433594 25.65625 31.433594 27.664062 C 30.953125 28.640625 29.917969 29.25 28.792969 29.25 L 26.652344 29.25 L 25.488281 27.507812 C 24.660156 26.257812 23.253906 25.5 21.742188 25.5 L 14.257812 25.5 C 12.746094 25.5 11.339844 26.257812 10.511719 27.507812 L 9.347656 29.25 L 7.207031 29.25 C 6.078125 29.25 5.039062 28.636719 4.550781 27.648438 C 3.242188 25.015625 2.691406 21.941406 3.171875 18.695312 C 4.042969 12.8125 8.484375 7.933594 14.246094 6.472656 C 15.472656 6.160156 16.683594 6.007812 17.863281 5.996094 Z M 17.988281 8.238281 C 17.574219 8.246094 17.246094 8.585938 17.25 9 L 17.25 11.25 C 17.246094 11.519531 17.386719 11.773438 17.621094 11.910156 C 17.855469 12.042969 18.144531 12.042969 18.378906 11.910156 C 18.613281 11.773438 18.753906 11.519531 18.75 11.25 L 18.75 9 C 18.753906 8.796875 18.671875 8.601562 18.53125 8.457031 C 18.386719 8.316406 18.191406 8.238281 17.988281 8.238281 Z M 11.464844 10.175781 C 11.1875 10.171875 10.929688 10.324219 10.796875 10.570312 C 10.667969 10.816406 10.679688 11.113281 10.835938 11.34375 L 12.0625 13.230469 C 12.203125 13.46875 12.460938 13.605469 12.734375 13.59375 C 13.007812 13.582031 13.253906 13.421875 13.375 13.175781 C 13.496094 12.929688 13.476562 12.640625 13.316406 12.414062 L 12.09375 10.527344 C 11.957031 10.3125 11.722656 10.179688 11.464844 10.175781 Z M 24.511719 10.175781 C 24.265625 10.1875 24.039062 10.320312 23.90625 10.527344 L 18.078125 19.503906 C 18.054688 19.5 18.027344 19.5 18 19.5 C 17.171875 19.5 16.5 20.171875 16.5 21 C 16.5 21.828125 17.171875 22.5 18 22.5 C 18.519531 22.5 19.003906 22.226562 19.277344 21.785156 C 19.546875 21.339844 19.570312 20.785156 19.335938 20.320312 L 25.164062 11.34375 C 25.320312 11.109375 25.332031 10.804688 25.195312 10.5625 C 25.058594 10.316406 24.792969 10.167969 24.511719 10.175781 Z M 7.050781 15.363281 C 6.691406 15.351562 6.371094 15.597656 6.292969 15.953125 C 6.214844 16.304688 6.398438 16.664062 6.734375 16.804688 L 8.789062 17.71875 C 9.167969 17.890625 9.609375 17.71875 9.777344 17.339844 C 9.945312 16.960938 9.777344 16.519531 9.398438 16.347656 L 7.34375 15.433594 C 7.25 15.390625 7.152344 15.367188 7.050781 15.363281 Z M 29 15.363281 C 28.882812 15.359375 28.765625 15.382812 28.660156 15.433594 L 26.601562 16.347656 C 26.351562 16.453125 26.175781 16.6875 26.144531 16.957031 C 26.113281 17.226562 26.230469 17.496094 26.453125 17.652344 C 26.675781 17.8125 26.964844 17.835938 27.210938 17.71875 L 29.269531 16.804688 C 29.589844 16.667969 29.777344 16.324219 29.710938 15.976562 C 29.648438 15.632812 29.351562 15.375 29 15.363281 Z M 8.378906 21.773438 C 8.335938 21.773438 8.292969 21.777344 8.253906 21.785156 L 6.03125 22.136719 C 5.757812 22.171875 5.527344 22.351562 5.425781 22.605469 C 5.328125 22.859375 5.371094 23.148438 5.546875 23.359375 C 5.722656 23.570312 5.996094 23.667969 6.265625 23.617188 L 8.488281 23.265625 C 8.878906 23.210938 9.160156 22.863281 9.128906 22.46875 C 9.101562 22.074219 8.773438 21.773438 8.378906 21.773438 Z M 27.597656 21.773438 C 27.207031 21.785156 26.890625 22.089844 26.867188 22.480469 C 26.84375 22.871094 27.125 23.210938 27.511719 23.265625 L 29.734375 23.617188 C 30.003906 23.667969 30.277344 23.570312 30.453125 23.359375 C 30.628906 23.148438 30.671875 22.859375 30.574219 22.605469 C 30.472656 22.351562 30.242188 22.171875 29.96875 22.136719 L 27.746094 21.785156 C 27.699219 21.773438 27.648438 21.773438 27.597656 21.773438 Z M 27.597656 21.773438 " />
    </g>
</svg>