<?xml version="1.0" encoding="UTF-8"?>
<svg xmlns="http://www.w3.org/2000/svg" xmlns:xlink="http://www.w3.org/1999/xlink" width="36pt" height="36pt" viewBox="0 0 36 36" version="1.1">
<g id="surface40409">
<path style=" stroke:none;fill-rule:nonzero;fill:rgb(0%,0%,0%);fill-opacity:1;" d="M 7.875 4.5 C 6.023438 4.5 4.5 6.023438 4.5 7.875 L 4.5 10.125 C 4.5 11.976562 6.023438 13.5 7.875 13.5 L 13.875 13.5 C 15.726562 13.5 17.25 11.976562 17.25 10.125 L 17.25 7.875 C 17.25 6.023438 15.726562 4.5 13.875 4.5 Z M 22.125 4.5 C 20.273438 4.5 18.75 6.023438 18.75 7.875 L 18.75 17.625 C 18.75 19.476562 20.273438 21 22.125 21 L 28.125 21 C 29.976562 21 31.5 19.476562 31.5 17.625 L 31.5 7.875 C 31.5 6.023438 29.976562 4.5 28.125 4.5 Z M 7.875 6.75 L 13.875 6.75 C 14.511719 6.75 15 7.238281 15 7.875 L 15 10.125 C 15 10.761719 14.511719 11.25 13.875 11.25 L 7.875 11.25 C 7.238281 11.25 6.75 10.761719 6.75 10.125 L 6.75 7.875 C 6.75 7.238281 7.238281 6.75 7.875 6.75 Z M 22.125 6.75 L 28.125 6.75 C 28.761719 6.75 29.25 7.238281 29.25 7.875 L 29.25 17.625 C 29.25 18.261719 28.761719 18.75 28.125 18.75 L 22.125 18.75 C 21.488281 18.75 21 18.261719 21 17.625 L 21 7.875 C 21 7.238281 21.488281 6.75 22.125 6.75 Z M 7.875 15 C 6.023438 15 4.5 16.523438 4.5 18.375 L 4.5 28.125 C 4.5 29.976562 6.023438 31.5 7.875 31.5 L 13.875 31.5 C 15.726562 31.5 17.25 29.976562 17.25 28.125 L 17.25 18.375 C 17.25 16.523438 15.726562 15 13.875 15 Z M 7.875 17.25 L 13.875 17.25 C 14.511719 17.25 15 17.738281 15 18.375 L 15 28.125 C 15 28.761719 14.511719 29.25 13.875 29.25 L 7.875 29.25 C 7.238281 29.25 6.75 28.761719 6.75 28.125 L 6.75 18.375 C 6.75 17.738281 7.238281 17.25 7.875 17.25 Z M 22.125 22.5 C 20.273438 22.5 18.75 24.023438 18.75 25.875 L 18.75 28.125 C 18.75 29.976562 20.273438 31.5 22.125 31.5 L 28.125 31.5 C 29.976562 31.5 31.5 29.976562 31.5 28.125 L 31.5 25.875 C 31.5 24.023438 29.976562 22.5 28.125 22.5 Z M 22.125 24.75 L 28.125 24.75 C 28.761719 24.75 29.25 25.238281 29.25 25.875 L 29.25 28.125 C 29.25 28.761719 28.761719 29.25 28.125 29.25 L 22.125 29.25 C 21.488281 29.25 21 28.761719 21 28.125 L 21 25.875 C 21 25.238281 21.488281 24.75 22.125 24.75 Z M 22.125 24.75 "/>
</g>
</svg>
