<?xml version="1.0" encoding="UTF-8"?>
<svg xmlns="http://www.w3.org/2000/svg" xmlns:xlink="http://www.w3.org/1999/xlink" width="150pt" height="150pt"
    viewBox="0 0 150 150" version="1.1">
    <g id="surface76604">
        <path style=" stroke:none;fill-rule:nonzero;fill:rgb(96.862745%,100%,99.215686%);fill-opacity:1;"
            d="M 248.941406 -607.019531 C 248.828125 -607.011719 248.722656 -606.976562 248.625 -606.917969 L 236.625 -600.019531 C 236.394531 -599.882812 236.25 -599.636719 236.25 -599.367188 L 236.25 -509.28125 C 236.25 -509.011719 236.394531 -508.761719 236.625 -508.628906 L 308.625 -467.082031 C 308.855469 -466.945312 309.144531 -466.945312 309.375 -467.082031 L 321.375 -474.011719 C 321.605469 -474.144531 321.75 -474.394531 321.75 -474.660156 L 321.75 -564.71875 C 321.75 -564.988281 321.605469 -565.238281 321.375 -565.371094 L 249.375 -606.917969 C 249.242188 -606.996094 249.09375 -607.03125 248.941406 -607.019531 Z M 470.941406 -607.019531 C 470.828125 -607.011719 470.722656 -606.976562 470.625 -606.917969 L 461.714844 -601.785156 L 455.625 -598.277344 C 455.394531 -598.144531 455.25 -597.898438 455.25 -597.632812 L 455.25 -591.132812 L 443.625 -584.417969 C 443.394531 -584.285156 443.25 -584.039062 443.25 -583.769531 L 443.25 -531.808594 C 443.25 -531.539062 443.394531 -531.292969 443.625 -531.15625 L 455.25 -524.449219 L 455.25 -518.382812 L 443.625 -511.667969 C 443.394531 -511.535156 443.25 -511.289062 443.25 -511.019531 L 443.25 -504.089844 C 443.25 -503.820312 443.394531 -503.570312 443.628906 -503.4375 L 445.007812 -502.65625 L 451.503906 -498.898438 L 444.769531 -494.988281 L 437.625 -490.878906 C 437.394531 -490.746094 437.25 -490.5 437.25 -490.230469 L 437.25 -483.300781 C 437.25 -483.03125 437.394531 -482.78125 437.625 -482.648438 L 446.980469 -477.25 C 446.984375 -477.25 446.984375 -477.25 446.988281 -477.25 L 464.625 -467.082031 C 464.855469 -466.945312 465.144531 -466.945312 465.375 -467.082031 L 523.933594 -500.886719 L 528.375 -503.4375 C 528.605469 -503.570312 528.75 -503.820312 528.75 -504.089844 L 528.75 -511.019531 C 528.75 -511.289062 528.605469 -511.535156 528.375 -511.667969 L 527.296875 -512.296875 C 527.296875 -512.296875 527.296875 -512.300781 527.296875 -512.304688 L 519.75 -516.644531 L 519.75 -550.855469 C 519.75 -551.125 519.605469 -551.375 519.375 -551.507812 L 502.035156 -561.527344 C 502.035156 -561.53125 502.035156 -561.53125 502.03125 -561.53125 L 498.75 -563.414062 L 498.75 -583.769531 C 498.75 -584.039062 498.605469 -584.285156 498.375 -584.417969 L 486.75 -591.132812 L 486.75 -597.632812 C 486.75 -597.898438 486.605469 -598.144531 486.375 -598.277344 L 480.285156 -601.785156 L 471.375 -606.917969 C 471.242188 -606.996094 471.09375 -607.03125 470.941406 -607.019531 Z M 1712.941406 -607.019531 C 1712.828125 -607.011719 1712.722656 -606.976562 1712.625 -606.917969 L 1694.625 -596.535156 C 1694.34375 -596.375 1694.199219 -596.050781 1694.269531 -595.734375 L 1700.75 -565.710938 L 1692.375 -570.558594 C 1692.144531 -570.691406 1691.859375 -570.695312 1691.625 -570.5625 L 1673.625 -560.179688 C 1673.34375 -560.015625 1673.199219 -559.691406 1673.269531 -559.371094 L 1681.042969 -522.882812 L 1667.625 -515.121094 C 1667.453125 -515.023438 1667.328125 -514.859375 1667.273438 -514.664062 C 1667.222656 -514.472656 1667.25 -514.269531 1667.347656 -514.09375 L 1694.347656 -467.355469 C 1694.449219 -467.183594 1694.613281 -467.058594 1694.804688 -467.003906 C 1694.996094 -466.953125 1695.203125 -466.980469 1695.375 -467.082031 L 1722.375 -482.648438 L 1740.375 -493.0625 C 1740.609375 -493.195312 1740.75 -493.441406 1740.75 -493.710938 C 1740.75 -493.980469 1740.609375 -494.226562 1740.375 -494.363281 L 1722.65625 -504.574219 L 1719.503906 -518.511719 L 1727.625 -513.820312 C 1727.855469 -513.6875 1728.144531 -513.6875 1728.375 -513.820312 L 1746.375 -524.230469 C 1746.65625 -524.394531 1746.800781 -524.71875 1746.730469 -525.035156 L 1731.730469 -596.042969 C 1731.6875 -596.253906 1731.558594 -596.429688 1731.375 -596.535156 L 1713.375 -606.917969 C 1713.242188 -606.996094 1713.09375 -607.03125 1712.941406 -607.019531 Z M 249 -605.402344 L 320.25 -564.285156 L 320.25 -475.089844 L 309 -468.597656 L 237.75 -509.714844 L 237.75 -598.933594 Z M 471 -605.402344 L 479.535156 -600.492188 L 485.25 -597.199219 L 485.25 -590.699219 C 485.25 -590.433594 485.394531 -590.183594 485.625 -590.050781 L 497.25 -583.335938 L 497.25 -562.980469 C 497.25 -562.710938 497.394531 -562.464844 497.625 -562.332031 L 501.285156 -560.230469 L 518.25 -550.429688 L 518.25 -516.210938 C 518.25 -515.941406 518.394531 -515.695312 518.625 -515.5625 L 526.539062 -511 L 527.25 -510.59375 L 527.25 -504.523438 L 523.183594 -502.1875 L 465 -468.597656 L 447.730469 -478.546875 L 438.75 -483.730469 L 438.75 -489.796875 L 445.511719 -493.6875 C 445.515625 -493.6875 445.515625 -493.691406 445.519531 -493.691406 L 453.375 -498.25 C 453.605469 -498.386719 453.746094 -498.632812 453.746094 -498.898438 C 453.746094 -499.164062 453.605469 -499.414062 453.375 -499.546875 L 445.757812 -503.960938 C 445.757812 -503.960938 445.753906 -503.964844 445.75 -503.964844 L 444.75 -504.527344 L 444.75 -510.585938 L 456.375 -517.300781 C 456.605469 -517.433594 456.75 -517.683594 456.75 -517.949219 L 456.75 -524.882812 C 456.75 -525.148438 456.605469 -525.394531 456.375 -525.527344 L 444.75 -532.242188 L 444.75 -583.335938 L 456.375 -590.050781 C 456.605469 -590.183594 456.75 -590.433594 456.75 -590.699219 L 456.75 -597.199219 L 462.464844 -600.492188 Z M 1713 -605.402344 L 1730.339844 -595.40625 L 1745.15625 -525.257812 L 1728 -515.339844 L 1718.777344 -520.667969 C 1718.519531 -520.820312 1718.199219 -520.800781 1717.957031 -520.625 C 1717.71875 -520.449219 1717.605469 -520.144531 1717.667969 -519.855469 L 1721.269531 -503.925781 C 1721.3125 -503.71875 1721.441406 -503.542969 1721.625 -503.4375 L 1738.5 -493.710938 L 1721.625 -483.949219 L 1695.277344 -468.753906 L 1669.027344 -514.195312 L 1682.269531 -521.859375 C 1682.550781 -522.023438 1682.695312 -522.347656 1682.625 -522.667969 L 1674.847656 -559.15625 L 1692 -569.042969 L 1701.464844 -563.5625 C 1701.71875 -563.414062 1702.039062 -563.429688 1702.28125 -563.605469 C 1702.519531 -563.78125 1702.632812 -564.078125 1702.570312 -564.371094 L 1695.847656 -595.511719 Z M 686.941406 -603.566406 C 686.828125 -603.558594 686.722656 -603.523438 686.625 -603.46875 L 674.625 -596.535156 C 674.394531 -596.402344 674.25 -596.160156 674.25 -595.894531 L 674.25 -582.03125 C 674.25 -581.761719 674.394531 -581.511719 674.625 -581.378906 L 676.5 -580.289062 L 638.625 -558.4375 C 638.394531 -558.304688 638.25 -558.058594 638.25 -557.789062 L 638.25 -498.902344 C 638.25 -498.632812 638.394531 -498.386719 638.625 -498.25 L 686.625 -470.53125 C 686.855469 -470.398438 687.144531 -470.398438 687.375 -470.53125 L 735.375 -498.25 C 735.605469 -498.386719 735.75 -498.632812 735.75 -498.902344 L 735.75 -557.789062 C 735.75 -558.058594 735.605469 -558.304688 735.375 -558.4375 L 697.5 -580.289062 L 699.375 -581.378906 C 699.605469 -581.511719 699.75 -581.761719 699.75 -582.03125 L 699.75 -595.894531 C 699.75 -596.160156 699.605469 -596.402344 699.375 -596.535156 L 687.375 -603.46875 C 687.242188 -603.546875 687.09375 -603.578125 686.941406 -603.566406 Z M 1256.941406 -603.566406 C 1256.828125 -603.558594 1256.722656 -603.523438 1256.625 -603.46875 L 1250.625 -599.988281 C 1250.394531 -599.855469 1250.25 -599.605469 1250.25 -599.339844 L 1250.25 -568.171875 C 1250.25 -567.902344 1250.394531 -567.65625 1250.625 -567.523438 L 1256.625 -564.070312 C 1256.855469 -563.9375 1257.144531 -563.9375 1257.375 -564.070312 L 1263 -567.304688 L 1268.625 -564.070312 C 1268.855469 -563.9375 1269.144531 -563.9375 1269.375 -564.070312 L 1275.375 -567.523438 C 1275.605469 -567.65625 1275.75 -567.902344 1275.75 -568.171875 L 1275.75 -592.441406 C 1275.75 -592.710938 1275.605469 -592.957031 1275.375 -593.09375 L 1269.375 -596.542969 C 1269.144531 -596.675781 1268.855469 -596.675781 1268.625 -596.542969 L 1263.75 -593.738281 L 1263.75 -599.339844 C 1263.75 -599.605469 1263.605469 -599.855469 1263.375 -599.988281 L 1257.375 -603.46875 C 1257.242188 -603.546875 1257.09375 -603.578125 1256.941406 -603.566406 Z M 1340.941406 -603.566406 C 1340.828125 -603.558594 1340.722656 -603.523438 1340.625 -603.46875 L 1334.625 -599.988281 C 1334.394531 -599.855469 1334.25 -599.605469 1334.25 -599.339844 L 1334.25 -593.738281 L 1329.375 -596.542969 C 1329.144531 -596.675781 1328.855469 -596.675781 1328.625 -596.542969 L 1322.625 -593.09375 C 1322.394531 -592.957031 1322.25 -592.710938 1322.25 -592.441406 L 1322.25 -568.171875 C 1322.25 -567.902344 1322.394531 -567.65625 1322.625 -567.523438 L 1328.625 -564.070312 C 1328.855469 -563.9375 1329.144531 -563.9375 1329.375 -564.070312 L 1335 -567.304688 L 1340.625 -564.070312 C 1340.855469 -563.9375 1341.144531 -563.9375 1341.375 -564.070312 L 1347.375 -567.523438 C 1347.605469 -567.65625 1347.75 -567.902344 1347.75 -568.171875 L 1347.75 -599.339844 C 1347.75 -599.605469 1347.605469 -599.855469 1347.375 -599.988281 L 1341.375 -603.46875 C 1341.242188 -603.546875 1341.09375 -603.578125 1340.941406 -603.566406 Z M 1502.941406 -603.566406 C 1502.828125 -603.558594 1502.722656 -603.523438 1502.625 -603.46875 L 1466.625 -582.679688 C 1466.488281 -582.597656 1466.378906 -582.476562 1466.3125 -582.328125 L 1454.3125 -554.605469 C 1454.21875 -554.390625 1454.230469 -554.140625 1454.347656 -553.933594 L 1484.25 -502.148438 L 1484.25 -481.558594 C 1484.25 -481.289062 1484.394531 -481.042969 1484.625 -480.90625 L 1502.625 -470.53125 C 1502.855469 -470.398438 1503.144531 -470.398438 1503.375 -470.53125 L 1521.375 -480.90625 C 1521.605469 -481.042969 1521.75 -481.289062 1521.75 -481.558594 L 1521.75 -502.148438 L 1551.652344 -553.933594 C 1551.769531 -554.140625 1551.78125 -554.390625 1551.6875 -554.605469 L 1539.6875 -582.328125 C 1539.621094 -582.476562 1539.511719 -582.597656 1539.375 -582.679688 L 1503.375 -603.46875 C 1503.242188 -603.546875 1503.09375 -603.578125 1502.941406 -603.566406 Z M 687 -601.949219 L 698.25 -595.460938 L 698.25 -582.464844 L 695.625 -580.9375 C 695.390625 -580.804688 695.25 -580.558594 695.25 -580.289062 C 695.25 -580.019531 695.390625 -579.773438 695.625 -579.636719 L 734.25 -557.355469 L 734.25 -499.332031 L 687 -472.050781 L 639.75 -499.332031 L 639.75 -557.355469 L 678.375 -579.636719 C 678.609375 -579.773438 678.75 -580.019531 678.75 -580.289062 C 678.75 -580.558594 678.609375 -580.804688 678.375 -580.9375 L 675.75 -582.464844 L 675.75 -595.460938 Z M 1257 -601.949219 L 1262.25 -598.910156 L 1262.25 -592.441406 C 1262.25 -592.171875 1262.390625 -591.925781 1262.625 -591.792969 C 1262.855469 -591.65625 1263.144531 -591.65625 1263.375 -591.789062 L 1269 -595.027344 L 1274.25 -592.007812 L 1274.25 -568.605469 L 1269 -565.589844 L 1263.375 -568.820312 C 1263.144531 -568.957031 1262.855469 -568.957031 1262.625 -568.820312 L 1257 -565.589844 L 1251.75 -568.605469 L 1251.75 -598.910156 Z M 1341 -601.949219 L 1346.25 -598.910156 L 1346.25 -568.605469 L 1341 -565.589844 L 1335.375 -568.820312 C 1335.144531 -568.957031 1334.855469 -568.957031 1334.625 -568.820312 L 1329 -565.589844 L 1323.75 -568.605469 L 1323.75 -592.007812 L 1329 -595.027344 L 1334.625 -591.789062 C 1334.855469 -591.65625 1335.144531 -591.65625 1335.375 -591.792969 C 1335.609375 -591.925781 1335.75 -592.171875 1335.75 -592.441406 L 1335.75 -598.910156 Z M 1503 -601.949219 L 1538.40625 -581.5 L 1550.160156 -554.355469 L 1520.347656 -502.722656 C 1520.285156 -502.609375 1520.25 -502.480469 1520.25 -502.347656 L 1520.25 -481.992188 L 1503 -472.042969 L 1485.75 -481.992188 L 1485.75 -502.347656 C 1485.75 -502.480469 1485.714844 -502.609375 1485.652344 -502.722656 L 1455.839844 -554.355469 L 1467.59375 -581.5 Z M 1094.960938 -600.089844 C 1094.722656 -600.074219 1094.503906 -599.949219 1094.375 -599.75 L 1076.84375 -572.777344 L 1065.492188 -582.597656 C 1065.308594 -582.757812 1065.058594 -582.816406 1064.820312 -582.757812 C 1064.585938 -582.699219 1064.390625 -582.53125 1064.304688 -582.304688 L 1043.304688 -528.601562 C 1043.238281 -528.4375 1043.230469 -528.25 1043.289062 -528.082031 L 1055.289062 -493.464844 C 1055.351562 -493.292969 1055.46875 -493.152344 1055.625 -493.0625 L 1094.625 -470.53125 C 1094.855469 -470.398438 1095.144531 -470.398438 1095.375 -470.53125 L 1134.375 -493.0625 C 1134.53125 -493.152344 1134.648438 -493.292969 1134.710938 -493.464844 L 1146.710938 -528.082031 C 1146.769531 -528.261719 1146.761719 -528.453125 1146.6875 -528.625 L 1128.6875 -570.207031 C 1128.601562 -570.402344 1128.4375 -570.550781 1128.234375 -570.617188 C 1128.03125 -570.683594 1127.808594 -570.664062 1127.625 -570.558594 L 1116.277344 -564.003906 L 1095.652344 -599.714844 C 1095.507812 -599.957031 1095.242188 -600.101562 1094.960938 -600.089844 Z M -120.023438 -598.375 C -120.148438 -598.375 -120.269531 -598.339844 -120.375 -598.277344 L -138.375 -587.871094 C -138.605469 -587.738281 -138.75 -587.488281 -138.75 -587.21875 L -138.75 -576.839844 C -138.75 -576.707031 -138.714844 -576.578125 -138.652344 -576.464844 L -130.300781 -561.992188 L -140.796875 -561.992188 L -152.5625 -568.84375 C -152.792969 -568.984375 -153.082031 -568.984375 -153.316406 -568.851562 L -174.375 -556.699219 C -174.605469 -556.566406 -174.75 -556.316406 -174.75 -556.050781 L -174.75 -514.46875 C -174.75 -514.203125 -174.605469 -513.953125 -174.375 -513.820312 L -162.75 -507.132812 L -162.75 -500.644531 C -162.75 -500.375 -162.605469 -500.125 -162.375 -499.992188 L -117.375 -474.011719 C -117.144531 -473.878906 -116.855469 -473.878906 -116.625 -474.011719 L -83.625 -493.0625 C -83.394531 -493.195312 -83.25 -493.441406 -83.25 -493.710938 L -83.25 -542.191406 C -83.25 -542.460938 -83.394531 -542.707031 -83.625 -542.84375 L -95.625 -549.769531 C -95.855469 -549.902344 -96.144531 -549.902344 -96.375 -549.769531 L -107.25 -543.492188 L -107.25 -559.09375 L -98.625 -564.070312 C -98.394531 -564.203125 -98.25 -564.453125 -98.25 -564.71875 L -98.25 -575.097656 C -98.25 -575.230469 -98.285156 -575.359375 -98.347656 -575.472656 L -107.347656 -591.074219 C -107.449219 -591.25 -107.613281 -591.375 -107.804688 -591.425781 C -107.996094 -591.476562 -108.203125 -591.453125 -108.375 -591.351562 L -117.375 -586.160156 C -117.605469 -586.027344 -117.75 -585.777344 -117.75 -585.507812 L -117.75 -579.875 L -119.25 -580.726562 L -119.25 -597.632812 C -119.25 -597.835938 -119.335938 -598.027344 -119.480469 -598.167969 C -119.625 -598.308594 -119.820312 -598.382812 -120.023438 -598.375 Z M 869.960938 -598.375 C 869.839844 -598.371094 869.726562 -598.335938 869.625 -598.277344 L 857.625 -591.351562 L 848.625 -586.160156 C 848.453125 -586.0625 848.328125 -585.898438 848.273438 -585.703125 C 848.222656 -585.511719 848.25 -585.308594 848.347656 -585.132812 L 852.609375 -577.726562 C 852.609375 -577.726562 852.609375 -577.726562 852.609375 -577.722656 L 853.972656 -575.375 L 852.433594 -574.488281 L 848.625 -572.304688 C 848.621094 -572.300781 848.621094 -572.300781 848.621094 -572.296875 L 845.230469 -570.316406 L 839.625 -567.082031 C 839.394531 -566.949219 839.25 -566.699219 839.25 -566.433594 L 839.25 -552.597656 C 839.25 -552.332031 839.394531 -552.085938 839.625 -551.953125 L 843.972656 -549.433594 L 848.25 -546.949219 L 848.25 -537 C 848.25 -536.867188 848.285156 -536.738281 848.347656 -536.625 L 853.972656 -526.894531 L 850 -524.601562 C 850 -524.601562 850 -524.597656 850 -524.59375 L 848.621094 -523.785156 C 848.265625 -523.578125 848.144531 -523.125 848.347656 -522.769531 L 850.121094 -519.679688 C 850.121094 -519.675781 850.121094 -519.675781 850.121094 -519.675781 L 857.347656 -507.191406 C 857.449219 -507.019531 857.613281 -506.894531 857.804688 -506.84375 C 857.996094 -506.792969 858.203125 -506.816406 858.375 -506.917969 L 863.722656 -509.996094 L 869.347656 -500.269531 C 869.414062 -500.152344 869.511719 -500.058594 869.625 -499.992188 L 874.539062 -497.136719 L 878.25 -494.988281 L 878.25 -485.039062 C 878.25 -484.769531 878.394531 -484.523438 878.625 -484.386719 L 889.300781 -478.242188 L 890.621094 -477.464844 C 890.851562 -477.328125 891.140625 -477.328125 891.375 -477.464844 L 900.375 -482.648438 L 905.753906 -485.753906 L 911.347656 -476 C 911.449219 -475.824219 911.613281 -475.699219 911.804688 -475.648438 C 911.996094 -475.597656 912.203125 -475.621094 912.375 -475.722656 L 921.375 -480.90625 L 933.375 -487.839844 C 933.546875 -487.9375 933.671875 -488.101562 933.726562 -488.296875 C 933.777344 -488.488281 933.75 -488.691406 933.652344 -488.867188 L 929.507812 -496.066406 L 928.027344 -498.625 L 930.375 -499.992188 L 942.375 -506.917969 C 942.605469 -507.050781 942.75 -507.300781 942.75 -507.566406 L 942.75 -521.402344 C 942.75 -521.667969 942.605469 -521.914062 942.375 -522.046875 L 938.085938 -524.535156 L 933.75 -527.050781 L 933.75 -537 C 933.75 -537.132812 933.714844 -537.261719 933.652344 -537.375 L 933.410156 -537.789062 C 933.410156 -537.792969 933.410156 -537.792969 933.410156 -537.796875 L 928.027344 -547.105469 L 931.964844 -549.398438 L 933.375 -550.207031 C 933.546875 -550.304688 933.671875 -550.46875 933.726562 -550.664062 C 933.777344 -550.855469 933.75 -551.058594 933.652344 -551.230469 L 924.652344 -566.835938 C 924.550781 -567.007812 924.386719 -567.132812 924.195312 -567.1875 C 924.003906 -567.238281 923.796875 -567.210938 923.625 -567.113281 L 918.277344 -564 L 912.652344 -573.730469 C 912.585938 -573.847656 912.488281 -573.941406 912.375 -574.007812 L 907.429688 -576.890625 C 907.425781 -576.890625 907.425781 -576.890625 907.425781 -576.890625 L 903.75 -579.011719 L 903.75 -588.960938 C 903.75 -589.230469 903.605469 -589.476562 903.375 -589.613281 L 891.375 -596.535156 C 891.144531 -596.671875 890.855469 -596.671875 890.625 -596.535156 L 881.625 -591.351562 L 876.277344 -588.246094 L 873.5 -593.085938 L 870.652344 -598.007812 C 870.507812 -598.25 870.242188 -598.394531 869.960938 -598.375 Z M 1094.960938 -597.90625 L 1115.347656 -562.605469 C 1115.449219 -562.433594 1115.613281 -562.308594 1115.804688 -562.253906 C 1115.996094 -562.203125 1116.203125 -562.230469 1116.375 -562.332031 L 1127.648438 -568.839844 L 1145.195312 -528.300781 L 1133.382812 -494.21875 L 1095 -472.050781 L 1056.617188 -494.21875 L 1044.796875 -528.316406 L 1065.3125 -580.769531 L 1076.507812 -571.085938 C 1076.671875 -570.941406 1076.890625 -570.878906 1077.101562 -570.910156 C 1077.316406 -570.9375 1077.507812 -571.0625 1077.625 -571.242188 Z M 1298.941406 -596.644531 C 1298.828125 -596.632812 1298.722656 -596.59375 1298.625 -596.535156 L 1283.625 -587.871094 C 1283.394531 -587.738281 1283.25 -587.488281 1283.25 -587.21875 L 1283.25 -569.910156 C 1283.25 -569.644531 1283.394531 -569.394531 1283.625 -569.261719 L 1284.691406 -568.652344 L 1250.324219 -499.230469 C 1250.152344 -498.875 1250.285156 -498.449219 1250.625 -498.25 L 1256.625 -494.773438 C 1256.855469 -494.636719 1257.144531 -494.636719 1257.375 -494.773438 L 1263.375 -498.25 C 1263.503906 -498.324219 1263.609375 -498.4375 1263.675781 -498.566406 L 1265.980469 -503.21875 L 1292.25 -488.058594 L 1292.25 -474.660156 C 1292.25 -474.394531 1292.394531 -474.144531 1292.625 -474.011719 L 1298.625 -470.53125 C 1298.855469 -470.398438 1299.144531 -470.398438 1299.375 -470.53125 L 1305.375 -474.011719 C 1305.605469 -474.144531 1305.75 -474.394531 1305.75 -474.660156 L 1305.75 -488.058594 L 1332.019531 -503.21875 L 1334.324219 -498.566406 C 1334.390625 -498.4375 1334.496094 -498.324219 1334.625 -498.25 L 1340.625 -494.773438 C 1340.855469 -494.636719 1341.144531 -494.636719 1341.375 -494.773438 L 1347.375 -498.25 C 1347.714844 -498.449219 1347.847656 -498.875 1347.675781 -499.230469 L 1313.308594 -568.652344 L 1314.375 -569.261719 C 1314.605469 -569.394531 1314.75 -569.644531 1314.75 -569.910156 L 1314.75 -587.21875 C 1314.75 -587.488281 1314.605469 -587.738281 1314.375 -587.871094 L 1299.375 -596.535156 C 1299.265625 -596.601562 1299.144531 -596.636719 1299.019531 -596.644531 C 1298.992188 -596.644531 1298.964844 -596.644531 1298.941406 -596.644531 Z M 74.882812 -596.605469 C 74.761719 -596.601562 74.640625 -596.570312 74.535156 -596.507812 L 61.785156 -589.160156 C 61.554688 -589.027344 61.410156 -588.777344 61.410156 -588.507812 L 61.410156 -585.226562 L 60.136719 -585.148438 L 57.136719 -584.988281 L 50.179688 -593.75 C 49.949219 -594.039062 49.535156 -594.117188 49.214844 -593.929688 L 36.464844 -586.582031 C 36.367188 -586.523438 36.285156 -586.445312 36.222656 -586.351562 L 28.089844 -574.46875 C 27.90625 -574.199219 27.917969 -573.835938 28.125 -573.582031 L 35.339844 -564.515625 L 35.339844 -544.367188 L 28.335938 -540.320312 C 28.015625 -540.136719 27.875 -539.746094 28.007812 -539.402344 L 36.140625 -518.160156 C 36.261719 -517.847656 36.578125 -517.648438 36.914062 -517.683594 L 43.886719 -518.390625 L 61.410156 -496.332031 L 61.410156 -486.597656 C 61.414062 -486.332031 61.554688 -486.085938 61.785156 -485.953125 L 78.015625 -476.589844 C 78.25 -476.457031 78.53125 -476.457031 78.761719 -476.589844 L 91.511719 -483.9375 C 91.746094 -484.070312 91.890625 -484.320312 91.890625 -484.589844 L 91.890625 -487.875 L 96 -488.304688 L 103.125 -479.355469 C 103.355469 -479.0625 103.761719 -478.984375 104.085938 -479.167969 L 116.835938 -486.523438 C 116.929688 -486.578125 117.011719 -486.652344 117.078125 -486.746094 L 125.207031 -498.597656 C 125.394531 -498.871094 125.378906 -499.230469 125.171875 -499.488281 L 117.960938 -508.523438 L 117.960938 -528.738281 L 124.933594 -532.78125 C 125.253906 -532.964844 125.390625 -533.351562 125.261719 -533.695312 L 117.15625 -554.90625 C 117.039062 -555.222656 116.722656 -555.417969 116.386719 -555.386719 L 109.410156 -554.707031 L 91.953125 -576.714844 L 91.890625 -586.503906 C 91.890625 -586.773438 91.75 -587.015625 91.515625 -587.152344 L 75.34375 -596.476562 C 75.332031 -596.488281 75.320312 -596.496094 75.304688 -596.5 L 75.246094 -596.53125 C 75.132812 -596.585938 75.007812 -596.613281 74.882812 -596.605469 Z M 869.722656 -596.605469 L 872.203125 -592.335938 L 875.347656 -586.84375 C 875.449219 -586.671875 875.613281 -586.546875 875.804688 -586.496094 C 875.996094 -586.445312 876.203125 -586.46875 876.375 -586.570312 L 882.375 -590.050781 L 891 -595.027344 L 902.25 -588.527344 L 902.25 -578.578125 C 902.25 -578.308594 902.394531 -578.0625 902.625 -577.929688 L 906.675781 -575.589844 L 911.449219 -572.8125 L 917.347656 -562.605469 C 917.554688 -562.25 918.003906 -562.125 918.363281 -562.324219 L 918.632812 -562.476562 C 918.636719 -562.476562 918.640625 -562.480469 918.644531 -562.480469 L 923.722656 -565.4375 L 931.972656 -551.132812 L 931.21875 -550.699219 C 931.21875 -550.699219 931.214844 -550.699219 931.214844 -550.699219 L 926.625 -548.027344 C 926.453125 -547.929688 926.328125 -547.765625 926.273438 -547.570312 C 926.222656 -547.378906 926.25 -547.175781 926.347656 -547 L 932.109375 -537.046875 L 932.25 -536.800781 L 932.25 -526.617188 C 932.25 -526.351562 932.394531 -526.105469 932.625 -525.972656 L 937.335938 -523.242188 L 941.25 -520.96875 L 941.25 -508 L 929.625 -501.285156 L 926.625 -499.546875 C 926.453125 -499.449219 926.328125 -499.285156 926.273438 -499.089844 C 926.222656 -498.898438 926.25 -498.695312 926.347656 -498.523438 L 928.214844 -495.316406 L 931.972656 -488.765625 L 920.625 -482.210938 L 912.277344 -477.394531 L 906.679688 -487.15625 C 906.582031 -487.328125 906.417969 -487.453125 906.222656 -487.503906 C 906.03125 -487.554688 905.828125 -487.53125 905.65625 -487.429688 L 899.625 -483.949219 L 891.003906 -478.980469 L 890.0625 -479.535156 C 890.0625 -479.535156 890.058594 -479.535156 890.058594 -479.535156 L 879.75 -485.472656 L 879.75 -495.421875 C 879.75 -495.6875 879.605469 -495.933594 879.375 -496.066406 L 875.296875 -498.4375 L 870.550781 -501.1875 L 864.652344 -511.394531 C 864.550781 -511.566406 864.386719 -511.691406 864.195312 -511.746094 C 864.003906 -511.796875 863.796875 -511.769531 863.625 -511.667969 L 858.277344 -508.59375 L 851.417969 -520.425781 L 850.019531 -522.867188 L 850.757812 -523.300781 L 855.375 -525.972656 C 855.546875 -526.070312 855.671875 -526.234375 855.726562 -526.429688 C 855.777344 -526.621094 855.75 -526.824219 855.652344 -527 L 849.75 -537.199219 L 849.75 -547.382812 C 849.75 -547.648438 849.605469 -547.894531 849.375 -548.027344 L 844.726562 -550.726562 L 840.75 -553.03125 L 840.75 -566 L 845.980469 -569.023438 C 845.984375 -569.019531 845.984375 -569.019531 845.988281 -569.023438 L 849.375 -571 L 853.183594 -573.1875 L 855.375 -574.445312 C 855.550781 -574.546875 855.675781 -574.710938 855.726562 -574.90625 C 855.78125 -575.097656 855.75 -575.304688 855.652344 -575.476562 L 853.910156 -578.472656 L 850.027344 -585.234375 L 858.375 -590.050781 Z M -120.75 -596.332031 L -120.75 -580.289062 C -120.75 -580.019531 -120.605469 -579.769531 -120.371094 -579.636719 L -117.371094 -577.929688 C -117.136719 -577.796875 -116.851562 -577.796875 -116.625 -577.933594 C -116.394531 -578.066406 -116.25 -578.3125 -116.25 -578.578125 L -116.25 -585.074219 L -108.277344 -589.675781 L -99.75 -574.898438 L -99.75 -565.15625 L -108.375 -560.179688 C -108.605469 -560.046875 -108.75 -559.796875 -108.75 -559.53125 L -108.75 -542.191406 C -108.75 -541.921875 -108.609375 -541.675781 -108.375 -541.542969 C -108.144531 -541.40625 -107.855469 -541.40625 -107.625 -541.539062 L -96 -548.253906 L -84.75 -541.757812 L -84.75 -494.144531 L -117 -475.523438 L -161.25 -501.070312 L -161.25 -507.566406 C -161.25 -507.835938 -161.394531 -508.085938 -161.625 -508.21875 L -173.25 -514.90625 L -173.25 -555.617188 L -152.941406 -567.335938 L -141.375 -560.589844 C -141.261719 -560.523438 -141.132812 -560.488281 -141 -560.492188 L -129 -560.492188 C -128.730469 -560.488281 -128.484375 -560.632812 -128.351562 -560.863281 C -128.214844 -561.097656 -128.214844 -561.382812 -128.347656 -561.617188 L -137.25 -577.042969 L -137.25 -586.785156 Z M 1299 -595.027344 L 1313.25 -586.785156 L 1313.25 -570.34375 L 1311.949219 -569.601562 C 1311.605469 -569.402344 1311.472656 -568.972656 1311.652344 -568.617188 L 1346.015625 -499.195312 L 1341 -496.289062 L 1335.566406 -499.4375 L 1333 -504.601562 C 1332.910156 -504.789062 1332.746094 -504.929688 1332.546875 -504.988281 C 1332.347656 -505.050781 1332.132812 -505.023438 1331.953125 -504.917969 L 1304.625 -489.140625 C 1304.394531 -489.007812 1304.25 -488.757812 1304.25 -488.492188 L 1304.25 -475.089844 L 1299 -472.050781 L 1293.75 -475.089844 L 1293.75 -488.492188 C 1293.75 -488.757812 1293.605469 -489.007812 1293.375 -489.140625 L 1266.046875 -504.917969 C 1265.867188 -505.023438 1265.652344 -505.050781 1265.453125 -504.988281 C 1265.253906 -504.929688 1265.089844 -504.789062 1265 -504.601562 L 1262.417969 -499.429688 L 1257 -496.289062 L 1251.984375 -499.195312 L 1286.347656 -568.617188 C 1286.527344 -568.972656 1286.394531 -569.402344 1286.050781 -569.601562 L 1284.75 -570.34375 L 1284.75 -586.785156 Z M 74.917969 -594.996094 L 90.390625 -586.066406 L 90.453125 -576.445312 C 90.453125 -576.277344 90.511719 -576.113281 90.613281 -575.980469 L 108.492188 -553.453125 C 108.652344 -553.253906 108.898438 -553.148438 109.15625 -553.171875 L 115.964844 -553.839844 L 123.632812 -533.757812 L 116.835938 -529.816406 C 116.605469 -529.683594 116.460938 -529.4375 116.460938 -529.171875 L 116.460938 -508.257812 C 116.460938 -508.089844 116.519531 -507.925781 116.625 -507.789062 L 123.65625 -498.984375 L 115.9375 -487.734375 L 103.890625 -480.789062 L 96.914062 -489.558594 C 96.753906 -489.757812 96.507812 -489.863281 96.25 -489.839844 L 91.0625 -489.300781 C 90.679688 -489.257812 90.390625 -488.933594 90.390625 -488.550781 L 90.390625 -485.023438 L 78.390625 -478.105469 L 62.910156 -487.03125 L 62.910156 -496.589844 C 62.914062 -496.757812 62.855469 -496.921875 62.75 -497.058594 L 44.808594 -519.644531 C 44.648438 -519.84375 44.398438 -519.949219 44.144531 -519.925781 L 37.335938 -519.234375 L 29.636719 -539.339844 L 36.464844 -543.28125 C 36.695312 -543.414062 36.839844 -543.664062 36.839844 -543.933594 L 36.839844 -564.78125 C 36.839844 -564.949219 36.785156 -565.113281 36.679688 -565.25 L 29.644531 -574.085938 L 37.363281 -585.363281 L 49.40625 -592.308594 L 56.203125 -583.75 C 56.355469 -583.5625 56.589844 -583.457031 56.828125 -583.46875 L 60.222656 -583.652344 C 60.226562 -583.652344 60.226562 -583.652344 60.230469 -583.652344 L 62.152344 -583.769531 L 62.160156 -583.769531 C 62.578125 -583.769531 62.910156 -584.105469 62.910156 -584.519531 L 62.910156 -588.074219 Z M 873.019531 -572.402344 C 872.878906 -572.402344 872.742188 -572.367188 872.625 -572.296875 L 869.625 -570.558594 C 869.394531 -570.421875 869.25 -570.179688 869.25 -569.910156 L 869.25 -562.828125 C 869.253906 -562.558594 869.398438 -562.308594 869.636719 -562.179688 L 876.207031 -558.515625 L 878.628906 -557.136719 C 878.863281 -557.007812 879.148438 -557.007812 879.375 -557.144531 C 879.605469 -557.277344 879.75 -557.523438 879.75 -557.789062 L 879.75 -568.171875 C 879.75 -568.4375 879.609375 -568.683594 879.378906 -568.816406 L 876.769531 -570.34375 C 876.765625 -570.347656 876.765625 -570.351562 876.761719 -570.351562 L 873.375 -572.304688 C 873.265625 -572.367188 873.144531 -572.398438 873.019531 -572.402344 Z M 873 -570.785156 L 876.011719 -569.050781 L 878.25 -567.738281 L 878.25 -559.078125 L 876.9375 -559.820312 L 870.75 -563.273438 L 870.75 -569.476562 Z M 62.140625 -568.410156 C 62.121094 -568.410156 62.105469 -568.410156 62.09375 -568.40625 L 58.523438 -568.078125 C 58.292969 -568.058594 58.085938 -567.933594 57.960938 -567.738281 L 56.460938 -565.429688 L 56.226562 -565.078125 C 56.144531 -564.957031 56.097656 -564.808594 56.097656 -564.660156 L 56.066406 -548.644531 C 56.066406 -548.429688 56.15625 -548.230469 56.3125 -548.085938 C 56.46875 -547.941406 56.679688 -547.871094 56.890625 -547.894531 L 58.511719 -548.042969 L 62.234375 -548.402344 C 62.617188 -548.4375 62.914062 -548.765625 62.910156 -549.152344 L 62.910156 -567.660156 C 62.914062 -567.863281 62.828125 -568.058594 62.683594 -568.199219 C 62.539062 -568.34375 62.339844 -568.417969 62.140625 -568.410156 Z M 61.410156 -566.835938 L 61.410156 -549.832031 L 58.371094 -549.539062 L 57.566406 -549.464844 L 57.597656 -564.429688 L 57.714844 -564.601562 C 57.71875 -564.605469 57.71875 -564.605469 57.71875 -564.609375 L 59.019531 -566.621094 Z M 1292.976562 -560.28125 C 1292.699219 -560.269531 1292.449219 -560.113281 1292.324219 -559.863281 L 1285.785156 -546.632812 C 1285.636719 -546.335938 1285.703125 -545.976562 1285.945312 -545.75 C 1286.1875 -545.523438 1286.550781 -545.480469 1286.835938 -545.648438 L 1293.375 -549.429688 C 1293.605469 -549.5625 1293.75 -549.808594 1293.75 -550.078125 L 1293.75 -559.53125 C 1293.75 -559.730469 1293.667969 -559.925781 1293.523438 -560.066406 C 1293.375 -560.210938 1293.179688 -560.285156 1292.976562 -560.28125 Z M 1304.9375 -560.28125 C 1304.546875 -560.246094 1304.25 -559.917969 1304.25 -559.53125 L 1304.25 -550.078125 C 1304.25 -549.808594 1304.394531 -549.5625 1304.625 -549.429688 L 1311.164062 -545.648438 C 1311.449219 -545.480469 1311.8125 -545.523438 1312.054688 -545.75 C 1312.296875 -545.976562 1312.363281 -546.335938 1312.214844 -546.632812 L 1305.675781 -559.863281 C 1305.539062 -560.140625 1305.242188 -560.304688 1304.9375 -560.28125 Z M 1292.25 -556.3125 L 1292.25 -550.511719 L 1288.238281 -548.191406 Z M 1305.75 -556.3125 L 1309.761719 -548.191406 L 1305.75 -550.511719 Z M 1288.921875 -519.269531 C 1288.808594 -519.261719 1288.703125 -519.226562 1288.605469 -519.167969 L 1276.632812 -512.238281 C 1276.40625 -512.105469 1276.261719 -511.855469 1276.261719 -511.589844 C 1276.261719 -511.324219 1276.40625 -511.078125 1276.632812 -510.941406 L 1292.625 -501.703125 C 1292.855469 -501.570312 1293.140625 -501.570312 1293.371094 -501.703125 C 1293.605469 -501.835938 1293.75 -502.082031 1293.75 -502.347656 L 1293.75 -516.210938 C 1293.75 -516.480469 1293.605469 -516.726562 1293.375 -516.863281 L 1289.355469 -519.167969 C 1289.222656 -519.246094 1289.074219 -519.28125 1288.921875 -519.269531 Z M 1308.933594 -519.269531 C 1308.820312 -519.261719 1308.710938 -519.226562 1308.617188 -519.167969 L 1304.625 -516.863281 C 1304.394531 -516.726562 1304.25 -516.480469 1304.25 -516.210938 L 1304.25 -502.347656 C 1304.25 -502.082031 1304.394531 -501.835938 1304.628906 -501.703125 C 1304.859375 -501.570312 1305.144531 -501.570312 1305.375 -501.703125 L 1321.367188 -510.941406 C 1321.59375 -511.078125 1321.738281 -511.324219 1321.738281 -511.589844 C 1321.738281 -511.855469 1321.59375 -512.105469 1321.367188 -512.238281 L 1309.367188 -519.167969 C 1309.234375 -519.246094 1309.082031 -519.28125 1308.933594 -519.269531 Z M 1288.980469 -517.652344 L 1292.25 -515.777344 L 1292.25 -503.648438 L 1278.503906 -511.59375 Z M 1308.992188 -517.652344 L 1319.496094 -511.589844 L 1305.75 -503.648438 L 1305.75 -515.777344 Z M 902.941406 -516.960938 C 902.550781 -516.929688 902.25 -516.601562 902.25 -516.210938 L 902.25 -505.828125 C 902.25 -505.5625 902.394531 -505.316406 902.625 -505.183594 L 908.625 -501.703125 C 908.855469 -501.570312 909.144531 -501.570312 909.375 -501.703125 L 912.375 -503.441406 C 912.605469 -503.578125 912.75 -503.820312 912.75 -504.089844 L 912.75 -511.019531 C 912.75 -511.289062 912.605469 -511.535156 912.375 -511.667969 L 911.296875 -512.296875 C 911.296875 -512.296875 911.296875 -512.300781 911.296875 -512.304688 L 903.375 -516.863281 C 903.265625 -516.925781 903.144531 -516.957031 903.019531 -516.960938 C 902.992188 -516.960938 902.964844 -516.960938 902.941406 -516.960938 Z M 903.75 -514.910156 L 910.539062 -511 L 911.25 -510.59375 L 911.25 -504.523438 L 909 -503.214844 L 903.75 -506.261719 Z M 473.960938 -401.308594 C 473.839844 -401.300781 473.726562 -401.269531 473.625 -401.210938 L 455.625 -390.796875 L 443.625 -383.871094 C 443.453125 -383.773438 443.328125 -383.609375 443.273438 -383.414062 C 443.222656 -383.222656 443.25 -383.019531 443.347656 -382.84375 L 484.972656 -310.746094 L 443.625 -286.878906 C 443.453125 -286.78125 443.328125 -286.617188 443.273438 -286.425781 C 443.222656 -286.234375 443.25 -286.027344 443.347656 -285.855469 L 455.347656 -265.066406 C 455.449219 -264.894531 455.613281 -264.769531 455.804688 -264.714844 C 455.996094 -264.664062 456.203125 -264.691406 456.375 -264.792969 L 528.375 -306.371094 C 528.546875 -306.46875 528.671875 -306.632812 528.726562 -306.824219 C 528.777344 -307.015625 528.75 -307.222656 528.652344 -307.394531 L 474.652344 -400.933594 C 474.507812 -401.179688 474.242188 -401.324219 473.960938 -401.308594 Z M 1499.941406 -401.308594 C 1499.828125 -401.300781 1499.722656 -401.265625 1499.625 -401.210938 L 1484.625 -392.535156 C 1484.394531 -392.402344 1484.25 -392.160156 1484.25 -391.894531 L 1484.25 -327.371094 L 1479.375 -330.199219 C 1479.144531 -330.332031 1478.855469 -330.332031 1478.625 -330.199219 L 1463.625 -321.527344 C 1463.269531 -321.320312 1463.144531 -320.867188 1463.347656 -320.507812 L 1496.347656 -263.355469 C 1496.449219 -263.183594 1496.613281 -263.058594 1496.804688 -263.003906 C 1496.996094 -262.953125 1497.203125 -262.980469 1497.375 -263.078125 L 1530.375 -282.128906 L 1545.375 -290.769531 C 1545.605469 -290.90625 1545.746094 -291.152344 1545.746094 -291.417969 C 1545.746094 -291.683594 1545.605469 -291.933594 1545.375 -292.066406 L 1524.75 -304 L 1524.75 -386.699219 C 1524.75 -386.96875 1524.605469 -387.21875 1524.375 -387.351562 L 1500.375 -401.210938 C 1500.242188 -401.285156 1500.09375 -401.320312 1499.941406 -401.308594 Z M 1715.960938 -401.308594 C 1715.839844 -401.300781 1715.726562 -401.269531 1715.625 -401.210938 L 1700.625 -392.535156 L 1667.625 -373.488281 C 1667.390625 -373.355469 1667.25 -373.105469 1667.25 -372.835938 C 1667.25 -372.570312 1667.390625 -372.320312 1667.625 -372.1875 L 1688.25 -360.285156 L 1688.25 -277.558594 C 1688.25 -277.289062 1688.394531 -277.042969 1688.625 -276.90625 L 1712.625 -263.078125 C 1712.855469 -262.945312 1713.144531 -262.945312 1713.375 -263.078125 L 1728.375 -271.722656 C 1728.605469 -271.855469 1728.75 -272.101562 1728.75 -272.367188 L 1728.75 -336.898438 L 1733.625 -334.089844 C 1733.855469 -333.957031 1734.144531 -333.957031 1734.375 -334.089844 L 1749.375 -342.730469 C 1749.546875 -342.832031 1749.671875 -342.996094 1749.726562 -343.1875 C 1749.777344 -343.378906 1749.75 -343.585938 1749.652344 -343.757812 L 1716.652344 -400.933594 C 1716.507812 -401.179688 1716.242188 -401.324219 1715.960938 -401.308594 Z M 1500 -399.691406 L 1523.25 -386.269531 L 1523.25 -303.566406 C 1523.25 -303.300781 1523.394531 -303.050781 1523.625 -302.917969 L 1543.5 -291.421875 L 1529.625 -283.429688 L 1497.277344 -264.753906 L 1465.027344 -320.605469 L 1479 -328.683594 L 1484.625 -325.425781 C 1484.855469 -325.289062 1485.140625 -325.289062 1485.371094 -325.421875 C 1485.605469 -325.554688 1485.75 -325.800781 1485.75 -326.066406 L 1485.75 -391.460938 Z M 308.960938 -399.566406 C 308.839844 -399.5625 308.726562 -399.527344 308.625 -399.46875 L 290.625 -389.09375 L 236.625 -357.890625 C 236.453125 -357.792969 236.328125 -357.628906 236.273438 -357.433594 C 236.222656 -357.242188 236.25 -357.039062 236.347656 -356.867188 L 290.347656 -263.355469 C 290.449219 -263.183594 290.613281 -263.058594 290.804688 -263.003906 C 290.996094 -262.953125 291.203125 -262.980469 291.375 -263.078125 L 303.375 -270.011719 L 321.375 -280.390625 C 321.546875 -280.488281 321.671875 -280.652344 321.726562 -280.84375 C 321.777344 -281.035156 321.75 -281.242188 321.652344 -281.414062 L 280.027344 -353.511719 L 321.375 -377.378906 C 321.546875 -377.476562 321.671875 -377.640625 321.726562 -377.835938 C 321.777344 -378.027344 321.75 -378.230469 321.652344 -378.40625 L 309.652344 -399.191406 C 309.507812 -399.4375 309.242188 -399.582031 308.960938 -399.566406 Z M 473.722656 -399.53125 L 526.972656 -307.292969 L 456.277344 -266.46875 L 445.027344 -285.953125 L 486.375 -309.820312 C 486.546875 -309.917969 486.671875 -310.082031 486.726562 -310.277344 C 486.777344 -310.46875 486.75 -310.671875 486.652344 -310.84375 L 445.027344 -382.945312 L 456.375 -389.5 Z M 1715.722656 -399.53125 L 1747.972656 -343.652344 L 1734 -335.605469 L 1728.375 -338.84375 C 1728.144531 -338.976562 1727.855469 -338.976562 1727.625 -338.839844 C 1727.390625 -338.707031 1727.25 -338.460938 1727.25 -338.191406 L 1727.25 -272.800781 L 1713 -264.597656 L 1689.75 -277.992188 L 1689.75 -360.71875 C 1689.75 -360.988281 1689.605469 -361.238281 1689.375 -361.371094 L 1669.496094 -372.84375 L 1701.375 -391.242188 Z M -138.058594 -397.828125 C -138.171875 -397.820312 -138.277344 -397.785156 -138.375 -397.726562 L -144.375 -394.277344 C -144.605469 -394.144531 -144.75 -393.898438 -144.75 -393.632812 L -144.75 -387.996094 L -149.625 -390.804688 C -149.855469 -390.9375 -150.144531 -390.9375 -150.375 -390.804688 L -156.375 -387.351562 C -156.605469 -387.21875 -156.75 -386.96875 -156.75 -386.699219 L -156.75 -381.0625 L -161.625 -383.871094 C -161.855469 -384.003906 -162.144531 -384.003906 -162.375 -383.871094 L -168.375 -380.417969 C -168.605469 -380.285156 -168.75 -380.039062 -168.75 -379.769531 L -168.75 -342.105469 L -180.375 -335.390625 C -180.605469 -335.257812 -180.75 -335.007812 -180.75 -334.742188 L -180.75 -303.566406 C -180.75 -303.300781 -180.605469 -303.050781 -180.375 -302.917969 L -120.375 -268.269531 C -120.144531 -268.136719 -119.855469 -268.136719 -119.625 -268.269531 L -77.625 -292.511719 C -77.394531 -292.644531 -77.25 -292.894531 -77.25 -293.160156 L -77.25 -324.328125 C -77.25 -324.597656 -77.394531 -324.84375 -77.625 -324.976562 L -89.25 -331.691406 L -89.25 -369.355469 C -89.25 -369.625 -89.394531 -369.875 -89.625 -370.007812 L -137.625 -397.726562 C -137.757812 -397.804688 -137.90625 -397.839844 -138.058594 -397.828125 Z M 308.722656 -397.792969 L 319.972656 -378.304688 L 278.625 -354.4375 C 278.453125 -354.339844 278.328125 -354.175781 278.273438 -353.984375 C 278.222656 -353.792969 278.25 -353.585938 278.347656 -353.414062 L 319.972656 -281.3125 L 302.625 -271.3125 C 302.625 -271.3125 302.625 -271.308594 302.625 -271.308594 L 291.277344 -264.753906 L 238.027344 -356.964844 L 291.375 -387.789062 Z M -138 -396.21875 L -90.75 -368.929688 L -90.75 -331.257812 C -90.75 -330.992188 -90.605469 -330.742188 -90.375 -330.609375 L -78.75 -323.894531 L -78.75 -293.59375 L -120 -269.78125 L -179.25 -304 L -179.25 -334.308594 L -167.625 -341.023438 C -167.394531 -341.15625 -167.25 -341.402344 -167.25 -341.671875 L -167.25 -379.335938 L -162 -382.351562 L -156.375 -379.121094 C -156.144531 -378.984375 -155.855469 -378.984375 -155.625 -379.121094 C -155.394531 -379.253906 -155.25 -379.5 -155.25 -379.769531 L -155.25 -386.269531 L -150 -389.285156 L -144.375 -386.050781 C -144.144531 -385.917969 -143.855469 -385.917969 -143.625 -386.050781 C -143.390625 -386.183594 -143.25 -386.433594 -143.25 -386.699219 L -143.25 -393.191406 Z M 653.960938 -390.898438 C 653.839844 -390.890625 653.726562 -390.855469 653.625 -390.796875 L 635.625 -380.417969 L 623.625 -373.488281 C 623.453125 -373.390625 623.328125 -373.226562 623.273438 -373.03125 C 623.222656 -372.839844 623.25 -372.636719 623.347656 -372.464844 L 677.347656 -278.921875 C 677.449219 -278.75 677.613281 -278.625 677.804688 -278.574219 C 677.996094 -278.523438 678.203125 -278.546875 678.375 -278.648438 L 732.375 -309.820312 L 750.375 -320.230469 C 750.546875 -320.332031 750.671875 -320.496094 750.726562 -320.6875 C 750.777344 -320.878906 750.75 -321.085938 750.652344 -321.257812 L 738.652344 -342.046875 C 738.441406 -342.402344 737.984375 -342.523438 737.625 -342.316406 L 719.625 -331.910156 L 696.277344 -318.421875 L 654.652344 -390.527344 C 654.507812 -390.769531 654.242188 -390.914062 653.960938 -390.898438 Z M 653.722656 -389.125 L 695.347656 -317.027344 C 695.449219 -316.855469 695.613281 -316.730469 695.804688 -316.675781 C 695.996094 -316.625 696.203125 -316.652344 696.375 -316.75 L 720.375 -330.609375 L 737.722656 -340.648438 L 748.972656 -321.152344 L 731.625 -311.121094 L 678.277344 -280.324219 L 625.027344 -372.566406 L 636.375 -379.121094 Z M 899.960938 -387.449219 C 899.839844 -387.445312 899.726562 -387.410156 899.625 -387.351562 L 881.625 -376.9375 L 827.625 -345.769531 C 827.453125 -345.667969 827.328125 -345.503906 827.273438 -345.3125 C 827.222656 -345.121094 827.25 -344.914062 827.347656 -344.742188 L 839.347656 -323.953125 C 839.449219 -323.78125 839.613281 -323.65625 839.804688 -323.601562 C 839.996094 -323.550781 840.203125 -323.578125 840.375 -323.679688 L 881.722656 -347.578125 L 923.347656 -275.472656 C 923.558594 -275.117188 924.015625 -274.996094 924.375 -275.203125 L 954.375 -292.511719 C 954.546875 -292.609375 954.671875 -292.773438 954.726562 -292.96875 C 954.777344 -293.160156 954.75 -293.363281 954.652344 -293.535156 L 900.652344 -387.074219 C 900.507812 -387.320312 900.242188 -387.464844 899.960938 -387.449219 Z M 1283.976562 -387.449219 C 1283.851562 -387.449219 1283.730469 -387.414062 1283.625 -387.351562 L 1235.625 -359.628906 C 1235.453125 -359.53125 1235.328125 -359.367188 1235.273438 -359.175781 C 1235.222656 -358.984375 1235.25 -358.777344 1235.347656 -358.605469 L 1268.347656 -301.453125 C 1268.449219 -301.28125 1268.613281 -301.15625 1268.804688 -301.101562 C 1268.996094 -301.050781 1269.203125 -301.078125 1269.375 -301.179688 L 1284.375 -309.820312 C 1284.605469 -309.953125 1284.75 -310.203125 1284.75 -310.46875 L 1284.75 -316.101562 L 1346.625 -280.390625 C 1346.855469 -280.253906 1347.144531 -280.253906 1347.375 -280.390625 L 1362.375 -289.0625 C 1362.605469 -289.195312 1362.75 -289.441406 1362.75 -289.710938 L 1362.75 -317.402344 C 1362.75 -317.667969 1362.605469 -317.914062 1362.375 -318.046875 L 1284.75 -362.894531 L 1284.75 -386.699219 C 1284.75 -386.902344 1284.667969 -387.097656 1284.523438 -387.238281 C 1284.375 -387.382812 1284.179688 -387.457031 1283.976562 -387.449219 Z M 1046.941406 -385.710938 C 1046.828125 -385.703125 1046.722656 -385.667969 1046.625 -385.613281 L 1031.625 -376.9375 C 1031.394531 -376.804688 1031.25 -376.558594 1031.25 -376.289062 L 1031.25 -348.597656 C 1031.25 -348.332031 1031.394531 -348.085938 1031.625 -347.953125 L 1109.25 -303.132812 L 1109.25 -279.296875 C 1109.25 -279.03125 1109.390625 -278.78125 1109.625 -278.648438 C 1109.855469 -278.515625 1110.144531 -278.515625 1110.375 -278.648438 L 1143.375 -297.703125 L 1158.375 -306.371094 C 1158.546875 -306.46875 1158.671875 -306.632812 1158.726562 -306.824219 C 1158.777344 -307.015625 1158.75 -307.222656 1158.652344 -307.394531 L 1125.652344 -364.546875 C 1125.550781 -364.71875 1125.386719 -364.84375 1125.195312 -364.898438 C 1125.003906 -364.949219 1124.796875 -364.921875 1124.625 -364.820312 L 1109.625 -356.179688 C 1109.394531 -356.046875 1109.25 -355.796875 1109.25 -355.53125 L 1109.25 -349.898438 L 1047.375 -385.613281 C 1047.265625 -385.675781 1047.144531 -385.707031 1047.019531 -385.710938 C 1046.992188 -385.710938 1046.964844 -385.710938 1046.941406 -385.710938 Z M 899.722656 -385.675781 L 952.972656 -293.4375 L 924.277344 -276.875 L 882.652344 -348.972656 C 882.550781 -349.144531 882.386719 -349.269531 882.195312 -349.324219 C 882.003906 -349.375 881.796875 -349.347656 881.625 -349.25 L 840.277344 -325.351562 L 829.027344 -344.847656 L 882.375 -375.636719 Z M 1283.25 -385.402344 L 1283.25 -362.460938 C 1283.25 -362.191406 1283.394531 -361.945312 1283.625 -361.8125 L 1361.25 -316.96875 L 1361.25 -290.144531 L 1347 -281.90625 L 1284.375 -318.046875 C 1284.144531 -318.179688 1283.859375 -318.179688 1283.628906 -318.046875 C 1283.394531 -317.914062 1283.25 -317.667969 1283.25 -317.402344 L 1283.25 -310.90625 L 1269.277344 -302.851562 L 1237.027344 -358.707031 Z M 1047 -384.09375 L 1109.625 -347.953125 C 1109.855469 -347.820312 1110.140625 -347.820312 1110.371094 -347.953125 C 1110.605469 -348.085938 1110.75 -348.332031 1110.75 -348.597656 L 1110.75 -355.09375 L 1124.722656 -363.148438 L 1156.972656 -307.292969 L 1142.625 -299 L 1110.75 -280.597656 L 1110.75 -303.566406 C 1110.75 -303.835938 1110.605469 -304.085938 1110.375 -304.21875 L 1032.75 -349.03125 L 1032.75 -375.855469 Z M 29.941406 -383.96875 C 29.828125 -383.960938 29.722656 -383.925781 29.625 -383.871094 L 11.625 -373.488281 C 11.453125 -373.390625 11.328125 -373.226562 11.273438 -373.03125 C 11.222656 -372.839844 11.25 -372.636719 11.347656 -372.464844 L 65.347656 -278.921875 C 65.449219 -278.75 65.613281 -278.625 65.804688 -278.574219 C 65.996094 -278.523438 66.203125 -278.546875 66.375 -278.648438 L 138.375 -320.230469 C 138.605469 -320.367188 138.746094 -320.613281 138.746094 -320.878906 C 138.746094 -321.144531 138.605469 -321.394531 138.375 -321.527344 L 30.375 -383.871094 C 30.242188 -383.949219 30.09375 -383.980469 29.941406 -383.96875 Z M 30 -382.351562 L 136.503906 -320.875 L 66.277344 -280.324219 L 13.027344 -372.5625 Z M 458.941406 -192.089844 C 458.828125 -192.078125 458.722656 -192.042969 458.625 -191.988281 L 440.625 -181.609375 C 440.453125 -181.511719 440.328125 -181.347656 440.273438 -181.15625 C 440.222656 -180.964844 440.25 -180.757812 440.347656 -180.585938 L 481.972656 -108.484375 L 440.625 -84.621094 C 440.390625 -84.488281 440.25 -84.238281 440.25 -83.972656 C 440.25 -83.703125 440.390625 -83.453125 440.625 -83.320312 L 470.625 -66.011719 C 470.855469 -65.878906 471.144531 -65.878906 471.375 -66.011719 L 513.375 -90.25 L 531.375 -100.628906 C 531.546875 -100.726562 531.671875 -100.890625 531.726562 -101.085938 C 531.777344 -101.277344 531.75 -101.480469 531.652344 -101.65625 L 489.652344 -174.40625 C 489.585938 -174.519531 489.488281 -174.613281 489.375 -174.679688 L 459.375 -191.988281 C 459.242188 -192.066406 459.09375 -192.097656 458.941406 -192.089844 Z M 459 -190.476562 L 488.449219 -173.480469 L 529.972656 -101.554688 L 512.625 -91.546875 L 471 -67.53125 L 442.5 -83.96875 L 483.375 -107.5625 C 483.546875 -107.660156 483.671875 -107.824219 483.726562 -108.015625 C 483.777344 -108.207031 483.75 -108.414062 483.652344 -108.585938 L 442.027344 -180.6875 Z M 293.941406 -190.375 C 293.828125 -190.367188 293.722656 -190.332031 293.625 -190.277344 L 275.625 -179.871094 L 233.625 -155.628906 C 233.453125 -155.53125 233.328125 -155.367188 233.273438 -155.175781 C 233.222656 -154.984375 233.25 -154.777344 233.347656 -154.605469 L 275.347656 -81.855469 C 275.414062 -81.742188 275.511719 -81.644531 275.625 -81.578125 L 305.625 -64.269531 C 305.855469 -64.136719 306.144531 -64.136719 306.375 -64.269531 L 324.375 -74.648438 C 324.546875 -74.746094 324.671875 -74.910156 324.726562 -75.105469 C 324.777344 -75.296875 324.75 -75.5 324.652344 -75.671875 L 283.027344 -147.773438 L 324.375 -171.640625 C 324.609375 -171.773438 324.75 -172.019531 324.75 -172.289062 C 324.75 -172.558594 324.609375 -172.804688 324.375 -172.9375 L 294.375 -190.277344 C 294.242188 -190.355469 294.09375 -190.386719 293.941406 -190.375 Z M 1067.964844 -190.375 C 1067.84375 -190.371094 1067.730469 -190.335938 1067.625 -190.277344 L 1055.625 -183.351562 C 1055.476562 -183.265625 1055.363281 -183.128906 1055.304688 -182.96875 L 1043.304688 -151.796875 C 1043.246094 -151.652344 1043.234375 -151.488281 1043.273438 -151.335938 L 1055.273438 -106.277344 C 1055.308594 -106.148438 1055.378906 -106.03125 1055.472656 -105.9375 L 1088.472656 -73.03125 C 1088.582031 -72.917969 1088.726562 -72.847656 1088.882812 -72.820312 L 1121.882812 -67.628906 C 1122.054688 -67.601562 1122.226562 -67.636719 1122.375 -67.722656 L 1134.375 -74.648438 C 1134.523438 -74.734375 1134.636719 -74.871094 1134.695312 -75.03125 L 1146.695312 -106.203125 C 1146.753906 -106.347656 1146.765625 -106.511719 1146.726562 -106.664062 L 1134.726562 -151.722656 C 1134.691406 -151.851562 1134.621094 -151.96875 1134.527344 -152.0625 L 1101.527344 -184.96875 C 1101.417969 -185.082031 1101.273438 -185.152344 1101.117188 -185.179688 L 1068.117188 -190.371094 C 1068.066406 -190.378906 1068.015625 -190.378906 1067.964844 -190.375 Z M 1271.964844 -190.375 C 1271.84375 -190.371094 1271.730469 -190.335938 1271.625 -190.277344 L 1259.625 -183.351562 C 1259.476562 -183.265625 1259.363281 -183.128906 1259.304688 -182.96875 L 1247.304688 -151.796875 C 1247.246094 -151.652344 1247.234375 -151.488281 1247.273438 -151.335938 L 1259.273438 -106.277344 C 1259.308594 -106.148438 1259.378906 -106.03125 1259.472656 -105.9375 L 1292.472656 -73.03125 C 1292.582031 -72.917969 1292.726562 -72.847656 1292.882812 -72.820312 L 1325.882812 -67.628906 C 1326.054688 -67.601562 1326.226562 -67.636719 1326.375 -67.722656 L 1338.375 -74.648438 C 1338.523438 -74.734375 1338.636719 -74.871094 1338.695312 -75.03125 L 1350.695312 -106.203125 C 1350.753906 -106.347656 1350.765625 -106.511719 1350.726562 -106.664062 L 1338.726562 -151.722656 C 1338.691406 -151.851562 1338.621094 -151.96875 1338.527344 -152.0625 L 1305.527344 -184.96875 C 1305.417969 -185.082031 1305.273438 -185.152344 1305.117188 -185.179688 L 1272.117188 -190.371094 C 1272.066406 -190.378906 1272.015625 -190.378906 1271.964844 -190.375 Z M 1475.964844 -190.375 C 1475.84375 -190.371094 1475.730469 -190.335938 1475.625 -190.277344 L 1463.625 -183.351562 C 1463.476562 -183.265625 1463.363281 -183.128906 1463.304688 -182.96875 L 1451.304688 -151.796875 C 1451.246094 -151.652344 1451.234375 -151.488281 1451.273438 -151.335938 L 1463.273438 -106.277344 C 1463.308594 -106.148438 1463.378906 -106.03125 1463.472656 -105.9375 L 1496.472656 -73.03125 C 1496.582031 -72.917969 1496.726562 -72.847656 1496.882812 -72.820312 L 1529.882812 -67.628906 C 1530.054688 -67.601562 1530.226562 -67.636719 1530.375 -67.722656 L 1542.375 -74.648438 C 1542.523438 -74.734375 1542.636719 -74.871094 1542.695312 -75.03125 L 1554.695312 -106.203125 C 1554.753906 -106.347656 1554.765625 -106.511719 1554.726562 -106.664062 L 1542.726562 -151.722656 C 1542.691406 -151.851562 1542.621094 -151.96875 1542.527344 -152.0625 L 1509.527344 -184.96875 C 1509.417969 -185.082031 1509.273438 -185.152344 1509.117188 -185.179688 L 1476.117188 -190.371094 C 1476.066406 -190.378906 1476.015625 -190.378906 1475.964844 -190.375 Z M 1679.964844 -190.375 C 1679.84375 -190.371094 1679.730469 -190.335938 1679.625 -190.277344 L 1667.625 -183.351562 C 1667.476562 -183.265625 1667.363281 -183.128906 1667.304688 -182.96875 L 1655.304688 -151.796875 C 1655.246094 -151.652344 1655.234375 -151.488281 1655.273438 -151.335938 L 1667.273438 -106.277344 C 1667.308594 -106.148438 1667.378906 -106.03125 1667.472656 -105.9375 L 1700.472656 -73.03125 C 1700.582031 -72.917969 1700.726562 -72.847656 1700.882812 -72.820312 L 1733.882812 -67.628906 C 1734.054688 -67.601562 1734.226562 -67.636719 1734.375 -67.722656 L 1746.375 -74.648438 C 1746.523438 -74.734375 1746.636719 -74.871094 1746.695312 -75.03125 L 1758.695312 -106.203125 C 1758.753906 -106.347656 1758.765625 -106.511719 1758.726562 -106.664062 L 1746.726562 -151.722656 C 1746.691406 -151.851562 1746.621094 -151.96875 1746.527344 -152.0625 L 1713.527344 -184.96875 C 1713.417969 -185.082031 1713.273438 -185.152344 1713.117188 -185.179688 L 1680.117188 -190.371094 C 1680.066406 -190.378906 1680.015625 -190.378906 1679.964844 -190.375 Z M 1068.148438 -188.847656 L 1100.648438 -183.734375 L 1133.324219 -151.140625 L 1145.214844 -106.511719 L 1133.398438 -75.8125 L 1121.851562 -69.152344 L 1089.355469 -74.261719 L 1056.675781 -106.859375 L 1044.785156 -151.488281 L 1056.601562 -182.1875 Z M 1272.148438 -188.847656 L 1304.648438 -183.734375 L 1337.324219 -151.140625 L 1349.214844 -106.511719 L 1337.398438 -75.8125 L 1325.851562 -69.152344 L 1293.355469 -74.261719 L 1260.675781 -106.859375 L 1248.785156 -151.488281 L 1260.601562 -182.1875 Z M 1476.148438 -188.847656 L 1508.648438 -183.734375 L 1541.324219 -151.140625 L 1553.214844 -106.511719 L 1541.398438 -75.8125 L 1529.851562 -69.152344 L 1497.355469 -74.261719 L 1464.675781 -106.859375 L 1452.785156 -151.488281 L 1464.601562 -182.1875 Z M 1680.148438 -188.847656 L 1712.644531 -183.738281 L 1745.324219 -151.140625 L 1757.214844 -106.511719 L 1745.398438 -75.8125 L 1733.851562 -69.152344 L 1701.351562 -74.265625 L 1668.675781 -106.859375 L 1656.785156 -151.488281 L 1668.601562 -182.1875 Z M 294 -188.765625 L 322.5 -172.289062 L 281.625 -148.699219 C 281.453125 -148.601562 281.328125 -148.4375 281.273438 -148.242188 C 281.222656 -148.050781 281.25 -147.847656 281.347656 -147.671875 L 322.972656 -75.574219 L 306 -65.789062 L 276.550781 -82.78125 L 235.027344 -154.703125 L 276.375 -178.570312 Z M 653.960938 -186.894531 C 653.839844 -186.890625 653.726562 -186.855469 653.625 -186.796875 L 635.625 -176.421875 C 635.394531 -176.285156 635.25 -176.039062 635.25 -175.769531 L 635.25 -141.117188 C 635.25 -140.984375 635.285156 -140.855469 635.347656 -140.742188 L 677.347656 -67.992188 C 677.558594 -67.636719 678.015625 -67.515625 678.375 -67.722656 L 738.375 -102.371094 C 738.605469 -102.503906 738.75 -102.75 738.75 -103.019531 L 738.75 -137.671875 C 738.75 -137.9375 738.605469 -138.183594 738.371094 -138.316406 C 738.140625 -138.449219 737.855469 -138.449219 737.625 -138.316406 L 719.625 -127.910156 L 696.277344 -114.421875 L 654.652344 -186.527344 C 654.507812 -186.769531 654.242188 -186.914062 653.960938 -186.894531 Z M 899.960938 -186.894531 C 899.839844 -186.890625 899.726562 -186.855469 899.625 -186.796875 L 881.625 -176.421875 L 839.625 -152.179688 C 839.394531 -152.046875 839.25 -151.796875 839.25 -151.53125 L 839.25 -116.882812 C 839.25 -116.613281 839.390625 -116.367188 839.625 -116.234375 C 839.855469 -116.097656 840.144531 -116.097656 840.375 -116.234375 L 881.722656 -140.097656 L 923.347656 -67.992188 C 923.558594 -67.636719 924.015625 -67.515625 924.375 -67.722656 L 942.375 -78.128906 C 942.605469 -78.261719 942.75 -78.511719 942.75 -78.78125 L 942.75 -113.402344 C 942.75 -113.535156 942.714844 -113.664062 942.652344 -113.777344 L 900.652344 -186.527344 C 900.507812 -186.769531 900.242188 -186.914062 899.960938 -186.894531 Z M 653.722656 -185.125 L 695.347656 -113.027344 C 695.449219 -112.855469 695.613281 -112.730469 695.804688 -112.675781 C 695.996094 -112.625 696.203125 -112.652344 696.375 -112.75 L 720.375 -126.609375 L 737.25 -136.371094 L 737.25 -103.453125 L 678.277344 -69.390625 L 636.75 -141.324219 L 636.75 -175.335938 Z M 899.722656 -185.125 L 941.25 -113.199219 L 941.25 -79.214844 L 924.277344 -69.390625 L 882.652344 -141.492188 C 882.550781 -141.664062 882.386719 -141.789062 882.195312 -141.84375 C 882.003906 -141.894531 881.796875 -141.867188 881.625 -141.765625 L 840.75 -118.175781 L 840.75 -151.09375 L 882.375 -175.121094 Z M -180.058594 -179.96875 C -180.171875 -179.960938 -180.277344 -179.925781 -180.375 -179.871094 L -195.375 -171.230469 C -195.605469 -171.09375 -195.75 -170.847656 -195.75 -170.578125 L -195.75 -149.789062 C -195.75 -149.519531 -195.605469 -149.273438 -195.375 -149.140625 L -102.75 -95.65625 L -102.75 -78.78125 C -102.75 -78.511719 -102.609375 -78.261719 -102.375 -78.128906 C -102.144531 -77.996094 -101.855469 -77.996094 -101.625 -78.128906 L -62.625 -100.628906 C -62.453125 -100.726562 -62.328125 -100.890625 -62.273438 -101.085938 C -62.222656 -101.277344 -62.25 -101.480469 -62.347656 -101.65625 L -86.347656 -143.234375 C -86.449219 -143.40625 -86.613281 -143.53125 -86.804688 -143.582031 C -86.996094 -143.632812 -87.203125 -143.609375 -87.375 -143.507812 L -102 -135.058594 L -179.625 -179.871094 C -179.757812 -179.949219 -179.90625 -179.980469 -180.058594 -179.96875 Z M 47.976562 -179.96875 C 47.851562 -179.96875 47.730469 -179.933594 47.625 -179.871094 L 8.625 -157.371094 C 8.453125 -157.273438 8.328125 -157.109375 8.273438 -156.914062 C 8.222656 -156.722656 8.25 -156.519531 8.347656 -156.34375 L 32.347656 -114.765625 C 32.449219 -114.59375 32.613281 -114.46875 32.804688 -114.417969 C 32.996094 -114.367188 33.203125 -114.390625 33.375 -114.492188 L 48 -122.941406 L 125.625 -78.128906 C 125.855469 -77.996094 126.144531 -77.996094 126.375 -78.128906 L 141.375 -86.769531 C 141.605469 -86.90625 141.75 -87.152344 141.75 -87.421875 L 141.75 -108.210938 C 141.75 -108.480469 141.605469 -108.726562 141.375 -108.859375 L 48.75 -162.34375 L 48.75 -179.21875 C 48.75 -179.421875 48.667969 -179.617188 48.523438 -179.757812 C 48.375 -179.902344 48.179688 -179.976562 47.976562 -179.96875 Z M -180 -178.355469 L -102.375 -133.542969 C -102.144531 -133.40625 -101.855469 -133.40625 -101.625 -133.542969 L -87.277344 -141.839844 L -64.027344 -101.554688 L -101.25 -80.078125 L -101.25 -96.089844 C -101.25 -96.355469 -101.394531 -96.605469 -101.625 -96.738281 L -194.25 -150.222656 L -194.25 -170.144531 Z M 47.25 -177.921875 L 47.25 -161.910156 C 47.25 -161.644531 47.394531 -161.394531 47.625 -161.261719 L 140.25 -107.777344 L 140.25 -87.855469 L 126 -79.644531 L 48.375 -124.457031 C 48.144531 -124.59375 47.855469 -124.59375 47.625 -124.457031 L 33.277344 -116.160156 L 10.027344 -156.445312 Z M 656.941406 4.980469 C 656.828125 4.988281 656.722656 5.023438 656.625 5.082031 L 650.625 8.53125 C 650.394531 8.664062 650.25 8.914062 650.25 9.183594 L 650.25 106.171875 C 650.25 106.441406 650.394531 106.6875 650.625 106.824219 L 716.625 144.949219 C 716.855469 145.082031 717.144531 145.082031 717.375 144.949219 L 723.375 141.46875 C 723.605469 141.335938 723.75 141.085938 723.75 140.816406 L 723.75 43.828125 C 723.75 43.558594 723.605469 43.3125 723.375 43.175781 L 657.375 5.082031 C 657.242188 5.003906 657.09375 4.96875 656.941406 4.980469 Z M 854.941406 4.980469 C 854.828125 4.988281 854.722656 5.023438 854.625 5.082031 L 848.625 8.53125 C 848.394531 8.664062 848.25 8.914062 848.25 9.183594 L 848.25 95.789062 C 848.25 96.058594 848.394531 96.304688 848.625 96.4375 L 932.625 144.921875 C 932.855469 145.054688 933.144531 145.054688 933.375 144.921875 L 939.375 141.46875 C 939.605469 141.335938 939.75 141.085938 939.75 140.816406 L 939.75 54.210938 C 939.75 53.941406 939.605469 53.695312 939.375 53.5625 L 855.375 5.082031 C 855.242188 5.003906 855.09375 4.96875 854.941406 4.980469 Z M 657 6.597656 L 722.25 44.261719 L 722.25 140.390625 L 717 143.433594 L 651.75 105.738281 L 651.75 9.613281 Z M 855 6.597656 L 938.25 54.644531 L 938.25 140.386719 L 933 143.402344 L 849.75 95.355469 L 849.75 9.613281 Z M 1052.941406 8.433594 C 1052.828125 8.441406 1052.722656 8.476562 1052.625 8.53125 L 1046.777344 11.910156 L 1046.773438 11.910156 C 1046.457031 12.011719 1046.246094 12.304688 1046.25 12.632812 L 1046.25 88.859375 C 1046.25 89.125 1046.394531 89.375 1046.625 89.507812 L 1136.625 141.46875 C 1136.855469 141.601562 1137.144531 141.601562 1137.375 141.46875 L 1143.375 138.015625 C 1143.605469 137.882812 1143.75 137.636719 1143.75 137.367188 L 1143.75 61.140625 C 1143.75 60.875 1143.605469 60.625 1143.375 60.492188 L 1053.375 8.53125 C 1053.242188 8.453125 1053.09375 8.421875 1052.941406 8.433594 Z M 1053 10.050781 L 1142.25 61.570312 L 1142.25 136.933594 L 1137 139.957031 L 1047.75 88.429688 L 1047.75 13.078125 Z M 1307.941406 10.171875 C 1307.828125 10.179688 1307.722656 10.214844 1307.625 10.269531 L 1301.625 13.722656 L 1292.625 18.910156 C 1292.394531 19.042969 1292.25 19.289062 1292.25 19.558594 L 1292.25 25.195312 L 1287.375 22.386719 C 1287.144531 22.253906 1286.855469 22.253906 1286.625 22.386719 L 1280.625 25.839844 L 1268.625 32.769531 C 1268.394531 32.90625 1268.25 33.152344 1268.25 33.421875 L 1268.25 54.210938 C 1268.25 54.34375 1268.285156 54.472656 1268.347656 54.585938 L 1278.941406 72.9375 L 1278.375 72.609375 C 1278.144531 72.476562 1277.855469 72.476562 1277.625 72.609375 L 1250.625 88.214844 C 1250.394531 88.347656 1250.25 88.589844 1250.25 88.859375 L 1250.25 106.171875 C 1250.25 106.304688 1250.285156 106.433594 1250.347656 106.546875 L 1259.347656 122.144531 C 1259.414062 122.257812 1259.511719 122.355469 1259.625 122.421875 L 1286.625 137.988281 C 1286.855469 138.121094 1287.144531 138.121094 1287.375 137.988281 L 1296.089844 132.96875 L 1322.773438 141.53125 C 1322.972656 141.597656 1323.191406 141.574219 1323.375 141.46875 L 1347.375 127.609375 C 1347.605469 127.476562 1347.75 127.230469 1347.75 126.960938 L 1347.75 116.578125 C 1347.75 116.25 1347.539062 115.960938 1347.226562 115.863281 L 1320.429688 107.261719 L 1302.566406 86.628906 C 1302.511719 86.566406 1302.449219 86.515625 1302.375 86.472656 L 1300.496094 85.382812 L 1317.375 75.652344 C 1317.605469 75.515625 1317.75 75.269531 1317.75 75 L 1317.75 61.578125 L 1326.375 56.601562 L 1332.375 53.121094 C 1332.605469 52.988281 1332.75 52.738281 1332.75 52.46875 L 1332.75 35.160156 C 1332.75 35.03125 1332.714844 34.902344 1332.652344 34.785156 L 1323.652344 19.183594 C 1323.585938 19.070312 1323.488281 18.972656 1323.375 18.910156 L 1308.375 10.269531 C 1308.242188 10.195312 1308.09375 10.160156 1307.941406 10.171875 Z M 47.421875 11.238281 L 46.5 11.769531 L 34.5 18.703125 L 33.578125 19.230469 L 33.199219 20.222656 L 21.199219 51.390625 L 20.847656 52.300781 L 21.097656 53.246094 L 33.097656 98.300781 L 33.3125 99.082031 L 33.886719 99.65625 L 66.886719 132.5625 L 67.570312 133.253906 L 68.535156 133.402344 L 101.535156 138.59375 L 102.578125 138.753906 L 103.5 138.222656 L 115.5 131.296875 L 116.421875 130.765625 L 116.800781 129.773438 L 128.800781 98.601562 L 129.152344 97.691406 L 128.902344 96.753906 L 116.902344 51.691406 L 116.6875 50.910156 L 116.113281 50.34375 L 83.113281 17.433594 L 82.429688 16.746094 L 81.464844 16.59375 L 48.464844 11.410156 Z M 1308 11.785156 L 1322.449219 20.109375 L 1331.25 35.359375 L 1331.25 52.035156 L 1325.625 55.300781 L 1316.625 60.492188 C 1316.394531 60.625 1316.25 60.875 1316.25 61.140625 L 1316.25 74.566406 L 1298.625 84.734375 C 1298.394531 84.867188 1298.253906 85.113281 1298.253906 85.378906 C 1298.253906 85.644531 1298.394531 85.894531 1298.625 86.027344 L 1301.511719 87.703125 L 1319.433594 108.398438 C 1319.523438 108.503906 1319.640625 108.582031 1319.773438 108.625 L 1346.25 117.128906 L 1346.25 126.527344 L 1322.910156 140.003906 L 1296.226562 131.4375 C 1296.027344 131.371094 1295.808594 131.394531 1295.625 131.5 L 1287 136.476562 L 1260.550781 121.21875 L 1251.75 105.96875 L 1251.75 89.292969 L 1278 74.125 L 1280.625 75.652344 C 1280.917969 75.820312 1281.292969 75.773438 1281.53125 75.53125 C 1281.773438 75.292969 1281.820312 74.917969 1281.652344 74.625 L 1269.75 54.011719 L 1269.75 33.855469 L 1281.375 27.140625 L 1287 23.90625 L 1292.625 27.140625 C 1292.855469 27.273438 1293.144531 27.273438 1293.375 27.140625 C 1293.609375 27.007812 1293.75 26.757812 1293.75 26.488281 L 1293.75 19.992188 L 1302.375 15.019531 Z M -156.035156 13.621094 C -156.15625 13.628906 -156.269531 13.664062 -156.375 13.722656 L -168.375 20.648438 C -168.523438 20.734375 -168.636719 20.871094 -168.699219 21.027344 L -180.699219 52.203125 C -180.753906 52.347656 -180.765625 52.511719 -180.726562 52.664062 L -168.726562 97.722656 C -168.691406 97.851562 -168.621094 97.96875 -168.527344 98.0625 L -135.527344 130.96875 C -135.417969 131.082031 -135.273438 131.152344 -135.117188 131.179688 L -102.117188 136.371094 C -101.945312 136.398438 -101.773438 136.363281 -101.625 136.277344 L -89.625 129.351562 C -89.476562 129.265625 -89.363281 129.128906 -89.300781 128.96875 L -77.300781 97.796875 C -77.246094 97.652344 -77.234375 97.488281 -77.273438 97.335938 L -89.273438 52.277344 C -89.308594 52.148438 -89.378906 52.03125 -89.472656 51.9375 L -122.472656 19.03125 C -122.582031 18.917969 -122.726562 18.847656 -122.882812 18.820312 L -155.882812 13.628906 C -155.933594 13.621094 -155.984375 13.621094 -156.035156 13.621094 Z M 251.964844 13.621094 C 251.84375 13.628906 251.730469 13.664062 251.625 13.722656 L 239.625 20.648438 C 239.476562 20.734375 239.363281 20.871094 239.300781 21.027344 L 227.300781 52.203125 C 227.246094 52.347656 227.234375 52.511719 227.273438 52.664062 L 239.273438 97.722656 C 239.308594 97.851562 239.378906 97.96875 239.472656 98.0625 L 272.472656 130.96875 C 272.582031 131.082031 272.726562 131.152344 272.882812 131.179688 L 305.882812 136.371094 C 306.054688 136.398438 306.226562 136.363281 306.375 136.277344 L 318.375 129.351562 C 318.523438 129.265625 318.636719 129.128906 318.695312 128.96875 L 330.695312 97.796875 C 330.753906 97.652344 330.765625 97.488281 330.726562 97.335938 L 318.726562 52.277344 C 318.691406 52.148438 318.621094 52.03125 318.527344 51.9375 L 285.527344 19.03125 C 285.417969 18.917969 285.273438 18.847656 285.117188 18.820312 L 252.117188 13.628906 C 252.066406 13.621094 252.015625 13.621094 251.964844 13.621094 Z M 455.964844 13.621094 C 455.84375 13.628906 455.730469 13.664062 455.625 13.722656 L 443.625 20.648438 C 443.476562 20.734375 443.363281 20.871094 443.304688 21.027344 L 431.304688 52.203125 C 431.246094 52.347656 431.234375 52.511719 431.273438 52.664062 L 443.273438 97.722656 C 443.308594 97.851562 443.378906 97.96875 443.472656 98.0625 L 476.472656 130.96875 C 476.582031 131.082031 476.726562 131.152344 476.882812 131.179688 L 509.882812 136.371094 C 510.054688 136.398438 510.226562 136.363281 510.375 136.277344 L 522.375 129.351562 C 522.523438 129.265625 522.636719 129.128906 522.695312 128.96875 L 534.695312 97.796875 C 534.753906 97.652344 534.765625 97.488281 534.726562 97.335938 L 522.726562 52.277344 C 522.691406 52.148438 522.621094 52.03125 522.527344 51.9375 L 489.527344 19.03125 C 489.417969 18.917969 489.273438 18.847656 489.117188 18.820312 L 456.117188 13.628906 C 456.066406 13.621094 456.015625 13.621094 455.964844 13.621094 Z M 1457.941406 13.621094 C 1457.828125 13.632812 1457.722656 13.667969 1457.625 13.722656 L 1451.625 17.203125 C 1451.394531 17.335938 1451.25 17.582031 1451.25 17.847656 L 1451.25 80.191406 C 1451.25 80.460938 1451.394531 80.707031 1451.625 80.84375 L 1490.449219 103.269531 L 1505.347656 129.078125 C 1505.445312 129.242188 1505.601562 129.367188 1505.789062 129.421875 L 1529.789062 136.347656 C 1529.984375 136.40625 1530.199219 136.378906 1530.375 136.277344 L 1554.375 122.421875 C 1554.605469 122.285156 1554.75 122.039062 1554.75 121.769531 L 1554.75 100.980469 C 1554.75 100.882812 1554.734375 100.789062 1554.695312 100.699219 L 1545.695312 78.171875 C 1545.632812 78.015625 1545.519531 77.882812 1545.375 77.800781 L 1524.75 65.894531 L 1524.75 52.46875 C 1524.75 52.203125 1524.605469 51.953125 1524.375 51.820312 L 1458.375 13.722656 C 1458.242188 13.644531 1458.09375 13.613281 1457.941406 13.621094 Z M -155.855469 15.152344 L -123.351562 20.269531 L -90.671875 52.859375 L -78.785156 97.488281 L -90.605469 128.1875 L -102.144531 134.847656 L -134.640625 129.738281 L -167.328125 97.140625 L -179.214844 52.511719 L -167.394531 21.816406 Z M 48.144531 15.152344 L 78.78125 19.972656 L 68.847656 25.722656 L 38.203125 20.894531 Z M 252.144531 15.152344 L 284.648438 20.269531 L 317.324219 52.859375 L 329.214844 97.488281 L 317.398438 128.1875 L 305.851562 134.847656 L 273.359375 129.738281 L 240.671875 97.140625 L 228.785156 52.511719 L 240.605469 21.816406 Z M 456.148438 15.152344 L 488.648438 20.269531 L 521.324219 52.859375 L 533.214844 97.488281 L 521.398438 128.1875 L 509.851562 134.847656 L 477.355469 129.738281 L 444.675781 97.140625 L 432.785156 52.511719 L 444.601562 21.816406 Z M 1458 15.234375 L 1523.25 52.90625 L 1523.25 66.328125 C 1523.25 66.597656 1523.394531 66.84375 1523.625 66.980469 L 1544.402344 78.96875 L 1553.25 101.125 L 1553.25 121.335938 L 1529.902344 134.816406 L 1506.5 128.0625 L 1491.652344 102.34375 C 1491.585938 102.230469 1491.488281 102.136719 1491.375 102.070312 L 1452.75 79.757812 L 1452.75 18.28125 Z M 80.875 20.496094 L 112.777344 52.308594 L 102.125 58.476562 L 70.222656 26.660156 Z M 36.480469 22.136719 L 68.640625 27.207031 L 101.328125 59.800781 L 113.214844 104.402344 L 101.519531 134.796875 L 69.359375 129.738281 L 36.671875 97.140625 L 24.785156 52.511719 Z M 1679.960938 27.480469 C 1679.839844 27.488281 1679.726562 27.519531 1679.625 27.582031 L 1655.625 41.441406 C 1655.394531 41.578125 1655.25 41.820312 1655.25 42.089844 L 1655.25 72.828125 L 1640.625 81.28125 C 1640.394531 81.414062 1640.25 81.664062 1640.25 81.933594 L 1640.25 88.859375 C 1640.25 89.125 1640.394531 89.375 1640.625 89.507812 L 1682.625 113.75 C 1682.855469 113.882812 1683.144531 113.882812 1683.375 113.75 L 1698 105.296875 L 1724.625 120.679688 C 1724.855469 120.8125 1725.144531 120.8125 1725.375 120.679688 L 1764.375 98.179688 C 1764.605469 98.046875 1764.75 97.796875 1764.75 97.53125 L 1764.75 83.671875 C 1764.75 83.402344 1764.605469 83.15625 1764.375 83.019531 L 1750.5 75 L 1773.375 61.785156 C 1773.605469 61.652344 1773.75 61.410156 1773.75 61.140625 L 1773.75 54.210938 C 1773.75 53.941406 1773.605469 53.695312 1773.375 53.5625 L 1731.375 29.320312 C 1731.144531 29.1875 1730.855469 29.1875 1730.625 29.320312 L 1713.113281 39.421875 L 1704.523438 31.171875 C 1704.40625 31.0625 1704.261719 30.988281 1704.105469 30.96875 L 1680.105469 27.488281 C 1680.058594 27.480469 1680.007812 27.476562 1679.960938 27.480469 Z M 1680.152344 29.011719 L 1703.65625 32.421875 L 1712.476562 40.890625 C 1712.71875 41.125 1713.085938 41.167969 1713.375 41 L 1731 30.839844 L 1772.25 54.644531 L 1772.25 60.707031 L 1748.625 74.347656 C 1748.390625 74.484375 1748.25 74.730469 1748.25 75 C 1748.25 75.269531 1748.390625 75.515625 1748.625 75.652344 L 1763.25 84.105469 L 1763.25 97.09375 L 1725 119.160156 L 1698.375 103.78125 C 1698.144531 103.648438 1697.855469 103.648438 1697.625 103.78125 L 1683 112.234375 L 1641.75 88.429688 L 1641.75 82.363281 L 1656.375 73.910156 C 1656.605469 73.777344 1656.75 73.527344 1656.75 73.261719 L 1656.75 42.519531 Z M 65.941406 48.269531 C 65.828125 48.277344 65.722656 48.3125 65.625 48.371094 L 56.625 53.566406 C 56.394531 53.699219 56.25 53.949219 56.25 54.21875 L 56.25 59.84375 L 48.375 55.296875 C 48.144531 55.160156 47.855469 55.160156 47.625 55.296875 C 47.390625 55.429688 47.25 55.675781 47.25 55.945312 L 47.246094 62.875 C 47.242188 63.144531 47.386719 63.394531 47.621094 63.527344 L 56.25 68.507812 L 56.25 73.699219 L 48.386719 69.15625 C 48.15625 69.023438 47.867188 69.023438 47.636719 69.160156 C 47.402344 69.292969 47.261719 69.539062 47.261719 69.808594 L 47.261719 76.738281 C 47.261719 77.007812 47.40625 77.257812 47.636719 77.390625 L 56.25 82.359375 L 56.25 88.859375 C 56.25 88.988281 56.285156 89.117188 56.347656 89.234375 L 65.347656 104.816406 C 65.414062 104.933594 65.511719 105.027344 65.625 105.09375 L 83.625 115.488281 C 83.855469 115.621094 84.144531 115.621094 84.375 115.488281 C 84.609375 115.355469 84.75 115.105469 84.75 114.839844 L 84.75 107.910156 C 84.75 107.644531 84.605469 107.394531 84.375 107.261719 L 69.550781 98.703125 L 63.75 88.65625 L 63.75 86.6875 L 77.628906 94.703125 C 77.863281 94.839844 78.148438 94.839844 78.382812 94.703125 C 78.613281 94.570312 78.757812 94.324219 78.753906 94.054688 L 78.75 87.125 C 78.75 86.855469 78.605469 86.605469 78.375 86.472656 L 63.75 78.03125 L 63.75 72.839844 L 77.621094 80.84375 C 77.851562 80.976562 78.136719 80.976562 78.371094 80.839844 C 78.601562 80.707031 78.746094 80.460938 78.746094 80.191406 L 78.75 73.269531 C 78.75 73.003906 78.605469 72.753906 78.375 72.621094 L 63.75 64.175781 L 63.75 61.578125 L 69 58.546875 L 83.625 66.988281 C 83.855469 67.125 84.144531 67.125 84.375 66.988281 C 84.609375 66.855469 84.75 66.609375 84.75 66.339844 L 84.75 59.414062 C 84.75 59.144531 84.605469 58.898438 84.375 58.765625 L 66.375 48.371094 C 66.242188 48.292969 66.09375 48.257812 65.941406 48.269531 Z M 66 49.886719 L 83.25 59.847656 L 83.25 65.039062 L 69.375 57.03125 C 69.144531 56.894531 68.855469 56.894531 68.625 57.03125 L 62.625 60.492188 C 62.394531 60.625 62.25 60.875 62.25 61.140625 L 62.25 64.605469 C 62.25 64.875 62.394531 65.121094 62.625 65.253906 L 77.25 73.699219 L 77.246094 78.890625 L 63.375 70.886719 C 63.144531 70.753906 62.855469 70.753906 62.625 70.886719 C 62.390625 71.019531 62.25 71.269531 62.25 71.535156 L 62.25 78.464844 C 62.25 78.730469 62.394531 78.980469 62.625 79.113281 L 77.25 87.558594 L 77.253906 92.753906 L 63.375 84.746094 C 63.144531 84.609375 62.855469 84.609375 62.625 84.746094 C 62.390625 84.878906 62.25 85.125 62.25 85.394531 L 62.25 88.859375 C 62.25 88.988281 62.285156 89.117188 62.347656 89.234375 L 68.347656 99.621094 C 68.414062 99.734375 68.511719 99.832031 68.625 99.894531 L 83.25 108.34375 L 83.25 113.535156 L 66.550781 103.898438 L 57.75 88.65625 L 57.75 81.925781 C 57.75 81.65625 57.605469 81.410156 57.375 81.277344 L 48.761719 76.308594 L 48.761719 71.109375 L 56.625 75.652344 C 56.855469 75.785156 57.144531 75.785156 57.375 75.648438 C 57.609375 75.515625 57.75 75.269531 57.75 75 L 57.75 68.074219 C 57.75 67.804688 57.605469 67.558594 57.375 67.421875 L 48.746094 62.449219 L 48.75 57.246094 L 56.625 61.792969 C 56.855469 61.925781 57.144531 61.925781 57.375 61.792969 C 57.609375 61.660156 57.75 61.410156 57.75 61.140625 L 57.75 54.652344 Z M 113.527344 53.609375 L 125.125 97.167969 L 114.472656 103.300781 L 102.875 59.769531 Z M 124.542969 99.234375 L 113.394531 128.1875 L 103.453125 133.921875 L 114.605469 104.964844 Z M 124.542969 99.234375 " />
    </g>
</svg>