<svg xmlns="http://www.w3.org/2000/svg" xmlns:xlink="http://www.w3.org/1999/xlink" width="24" height="24" version="1.1" viewBox="0 0 18 18"><g id="surface50770"><path style="stroke:none;fill-rule:nonzero;fill:#000;fill-opacity:1" d="M 5.597656 2.25 C 3.285156 2.25 1.855469 3.113281 1.855469 3.113281 L 1.5 3.332031 L 1.5 14.25 C 1.5 14.273438 1.5 14.296875 1.503906 14.320312 C 1.503906 14.320312 1.503906 14.324219 1.503906 14.324219 C 1.503906 14.347656 1.507812 14.371094 1.511719 14.394531 C 1.558594 14.640625 1.722656 14.847656 1.953125 14.945312 C 2.179688 15.046875 2.445312 15.023438 2.65625 14.890625 C 2.835938 14.804688 4.074219 14.25 5.597656 14.25 C 6.324219 14.25 6.988281 14.386719 7.527344 14.535156 C 7.664062 15.226562 8.269531 15.75 9 15.75 C 9.730469 15.75 10.335938 15.226562 10.472656 14.535156 C 11.011719 14.386719 11.675781 14.25 12.402344 14.25 C 13.910156 14.25 15.132812 14.792969 15.335938 14.886719 C 15.554688 15.03125 15.828125 15.050781 16.0625 14.941406 C 16.300781 14.832031 16.460938 14.609375 16.496094 14.355469 C 16.496094 14.351562 16.496094 14.351562 16.496094 14.351562 C 16.496094 14.335938 16.496094 14.320312 16.5 14.300781 C 16.5 14.292969 16.5 14.285156 16.5 14.277344 C 16.5 14.269531 16.5 14.257812 16.5 14.25 L 16.5 3.332031 L 16.144531 3.113281 C 16.144531 3.113281 14.714844 2.25 12.402344 2.25 C 11.351562 2.25 10.492188 2.417969 9.855469 2.601562 C 9.53125 2.699219 9.242188 2.871094 9 3.089844 C 8.757812 2.871094 8.46875 2.699219 8.144531 2.601562 L 8.140625 2.601562 C 7.507812 2.417969 6.644531 2.25 5.597656 2.25 Z M 5.597656 3.75 C 6.488281 3.75 7.203125 3.890625 7.71875 4.042969 C 8.039062 4.136719 8.25 4.421875 8.25 4.761719 L 8.25 13.167969 C 7.574219 12.960938 6.636719 12.75 5.597656 12.75 C 4.578125 12.75 3.664062 12.953125 3 13.160156 L 3 4.234375 C 3.359375 4.058594 4.105469 3.75 5.597656 3.75 Z M 12.402344 3.75 C 13.894531 3.75 14.640625 4.058594 15 4.234375 L 15 13.160156 C 14.335938 12.953125 13.421875 12.75 12.402344 12.75 C 11.363281 12.75 10.425781 12.960938 9.75 13.167969 L 9.75 4.761719 C 9.75 4.421875 9.960938 4.136719 10.28125 4.042969 C 10.796875 3.890625 11.511719 3.75 12.402344 3.75 Z M 12 4.5 L 12 5.289062 C 11.59375 5.375 10.707031 5.6875 10.707031 6.875 C 10.707031 8.890625 12.992188 8.292969 12.992188 9.636719 C 12.992188 10.3125 12.515625 10.328125 12.417969 10.328125 C 12.332031 10.328125 11.746094 10.371094 11.746094 9.339844 L 10.5 9.339844 C 10.5 11.085938 11.886719 11.222656 12.09375 11.25 L 12 11.25 L 12 12 L 12.75 12 L 12.75 11.25 L 12.753906 11.25 C 12.980469 11.222656 14.242188 11.035156 14.242188 9.628906 C 14.242188 7.695312 11.957031 8.066406 11.957031 6.878906 C 11.957031 6.199219 12.367188 6.175781 12.453125 6.175781 C 12.617188 6.175781 13.003906 6.308594 13.003906 7.136719 L 14.25 7.136719 C 14.25 5.550781 13.0625 5.304688 12.851562 5.265625 L 12.75 5.261719 L 12.75 4.5 Z M 12 4.5"/></g></svg>