<svg xmlns="http://www.w3.org/2000/svg" xmlns:xlink="http://www.w3.org/1999/xlink" width="48" height="48" version="1.1" viewBox="0 0 36 36"><g id="surface22657"><path style="stroke:none;fill-rule:nonzero;fill:#000;fill-opacity:1" d="M 18 2.25 C 17.28125 2.25 16.5625 2.5 15.988281 2.996094 L 2.839844 14.347656 C 2.839844 14.351562 2.839844 14.351562 2.835938 14.351562 C 2.289062 14.828125 2.152344 15.585938 2.371094 16.175781 C 2.589844 16.765625 3.195312 17.25 3.921875 17.25 L 27 17.25 C 27.269531 17.253906 27.523438 17.113281 27.660156 16.878906 C 27.792969 16.644531 27.792969 16.355469 27.660156 16.121094 C 27.523438 15.886719 27.269531 15.746094 27 15.75 L 3.921875 15.75 C 3.8125 15.75 3.800781 15.714844 3.777344 15.652344 C 3.753906 15.585938 3.738281 15.554688 3.820312 15.484375 L 16.96875 4.128906 C 17.5625 3.613281 18.4375 3.613281 19.03125 4.128906 L 24.257812 8.644531 C 24.480469 8.835938 24.796875 8.882812 25.0625 8.761719 C 25.328125 8.636719 25.5 8.371094 25.5 8.078125 L 25.5 4.5 L 27.75 4.5 L 27.75 11.316406 C 27.75 11.535156 27.84375 11.742188 28.007812 11.886719 L 32.179688 15.484375 C 32.261719 15.554688 32.246094 15.585938 32.222656 15.652344 C 32.199219 15.714844 32.1875 15.75 32.078125 15.75 L 30 15.75 C 29.585938 15.75 29.25 16.085938 29.25 16.5 L 29.25 31.5 C 29.25 31.921875 28.921875 32.25 28.5 32.25 L 23.25 32.25 C 22.828125 32.25 22.5 31.921875 22.5 31.5 L 22.5 24 C 22.5 22.765625 21.484375 21.75 20.25 21.75 L 15.75 21.75 C 14.515625 21.75 13.5 22.765625 13.5 24 L 13.5 31.5 C 13.5 31.921875 13.171875 32.25 12.75 32.25 L 7.5 32.25 C 7.078125 32.25 6.75 31.921875 6.75 31.5 L 6.75 19.5 C 6.753906 19.230469 6.613281 18.976562 6.378906 18.839844 C 6.144531 18.707031 5.855469 18.707031 5.621094 18.839844 C 5.386719 18.976562 5.246094 19.230469 5.25 19.5 L 5.25 31.5 C 5.25 32.734375 6.265625 33.75 7.5 33.75 L 12.75 33.75 C 13.984375 33.75 15 32.734375 15 31.5 L 15 24 C 15 23.585938 15.335938 23.25 15.75 23.25 L 20.25 23.25 C 20.664062 23.25 21 23.585938 21 24 L 21 31.5 C 21 32.734375 22.015625 33.75 23.25 33.75 L 28.5 33.75 C 29.734375 33.75 30.75 32.734375 30.75 31.5 L 30.75 17.25 L 32.078125 17.25 C 32.804688 17.25 33.410156 16.765625 33.628906 16.175781 C 33.847656 15.585938 33.710938 14.828125 33.164062 14.351562 C 33.160156 14.351562 33.160156 14.351562 33.160156 14.347656 L 29.25 10.972656 L 29.25 4.5 C 29.25 3.679688 28.570312 3 27.75 3 L 25.5 3 C 24.679688 3 24 3.679688 24 4.5 L 24 6.4375 L 20.011719 2.996094 C 19.4375 2.5 18.71875 2.25 18 2.25 Z M 18 2.25"/></g></svg>