<?xml version="1.0" encoding="UTF-8"?>
<svg xmlns="http://www.w3.org/2000/svg" xmlns:xlink="http://www.w3.org/1999/xlink" width="36pt" height="36pt" viewBox="0 0 36 36" version="1.1">
<g id="surface45666">
<path style=" stroke:none;fill-rule:nonzero;fill:rgb(0%,0%,0%);fill-opacity:1;" d="M 12.75 2.25 C 10.6875 2.25 9 3.9375 9 6 L 9 6.75 L 8.25 6.75 C 6.1875 6.75 4.5 8.4375 4.5 10.5 L 4.5 31.5 C 4.5 33.5625 6.1875 35.25 8.25 35.25 L 23.25 35.25 C 24.625 35.25 25.835938 34.507812 26.484375 33.394531 C 26.628906 33.164062 26.636719 32.871094 26.503906 32.632812 C 26.371094 32.394531 26.121094 32.246094 25.847656 32.25 C 25.574219 32.25 25.324219 32.398438 25.191406 32.636719 C 24.800781 33.300781 24.082031 33.75 23.25 33.75 L 8.25 33.75 C 7 33.75 6 32.75 6 31.5 L 6 10.5 C 6 9.25 7 8.25 8.25 8.25 L 9 8.25 L 9 27 C 9 29.0625 10.6875 30.75 12.75 30.75 L 28.5 30.75 C 30.5625 30.75 32.25 29.0625 32.25 27 L 32.25 14.25 C 32.253906 13.980469 32.113281 13.726562 31.878906 13.589844 C 31.644531 13.457031 31.355469 13.457031 31.121094 13.589844 C 30.886719 13.726562 30.746094 13.980469 30.75 14.25 L 30.75 27 C 30.75 28.25 29.75 29.25 28.5 29.25 L 12.75 29.25 C 11.5 29.25 10.5 28.25 10.5 27 L 10.5 7.625 C 10.511719 7.546875 10.511719 7.460938 10.5 7.382812 L 10.5 6 C 10.5 4.75 11.5 3.75 12.75 3.75 L 22.316406 3.75 C 22.386719 3.75 22.433594 3.816406 22.5 3.824219 L 22.5 9 C 22.5 10.648438 23.851562 12 25.5 12 L 31.5 12 C 31.804688 12 32.078125 11.816406 32.191406 11.535156 C 32.308594 11.257812 32.246094 10.933594 32.03125 10.71875 L 24.441406 3.128906 C 23.878906 2.566406 23.113281 2.25 22.316406 2.25 Z M 24 4.8125 L 29.691406 10.5 L 25.5 10.5 C 24.664062 10.5 24 9.835938 24 9 Z M 23.25 17.25 C 22.980469 17.246094 22.726562 17.386719 22.589844 17.621094 C 22.457031 17.855469 22.457031 18.144531 22.589844 18.378906 C 22.726562 18.613281 22.980469 18.753906 23.25 18.75 L 25.191406 18.75 L 21 22.941406 L 17.78125 19.71875 C 17.488281 19.425781 17.011719 19.425781 16.71875 19.71875 L 12.96875 23.46875 C 12.773438 23.65625 12.695312 23.9375 12.761719 24.199219 C 12.832031 24.460938 13.039062 24.667969 13.300781 24.738281 C 13.5625 24.804688 13.84375 24.726562 14.03125 24.53125 L 17.25 21.308594 L 20.46875 24.53125 C 20.761719 24.824219 21.238281 24.824219 21.53125 24.53125 L 26.25 19.808594 L 26.25 21.75 C 26.246094 22.019531 26.386719 22.273438 26.621094 22.410156 C 26.855469 22.542969 27.144531 22.542969 27.378906 22.410156 C 27.613281 22.273438 27.753906 22.019531 27.75 21.75 L 27.75 18 C 27.75 17.585938 27.414062 17.25 27 17.25 Z M 23.25 17.25 "/>
</g>
</svg>
