<?xml version="1.0" encoding="UTF-8"?>
<svg xmlns="http://www.w3.org/2000/svg" xmlns:xlink="http://www.w3.org/1999/xlink" width="37.5pt" height="37.5pt"
    viewBox="0 0 37.5 37.5" version="1.1">
    <g id="surface13533">
        <path style=" stroke:none;fill-rule:nonzero;fill:rgb(100%,100%,100%);fill-opacity:1;"
            d="M 13.105469 2.3125 C 10.984375 2.3125 9.25 4.046875 9.25 6.167969 L 9.25 6.9375 L 8.480469 6.9375 C 6.359375 6.9375 4.625 8.671875 4.625 10.792969 L 4.625 32.375 C 4.625 34.496094 6.359375 36.230469 8.480469 36.230469 L 23.894531 36.230469 C 25.308594 36.230469 26.550781 35.464844 27.222656 34.324219 C 27.371094 34.085938 27.378906 33.785156 27.242188 33.539062 C 27.105469 33.296875 26.847656 33.144531 26.566406 33.144531 C 26.285156 33.144531 26.027344 33.296875 25.890625 33.542969 C 25.492188 34.226562 24.753906 34.6875 23.894531 34.6875 L 8.480469 34.6875 C 7.191406 34.6875 6.167969 33.660156 6.167969 32.375 L 6.167969 10.792969 C 6.167969 9.503906 7.191406 8.480469 8.480469 8.480469 L 9.25 8.480469 L 9.25 27.75 C 9.25 29.871094 10.984375 31.605469 13.105469 31.605469 L 29.292969 31.605469 C 31.410156 31.605469 33.144531 29.871094 33.144531 27.75 L 33.144531 14.644531 C 33.148438 14.367188 33.003906 14.109375 32.761719 13.96875 C 32.523438 13.828125 32.226562 13.828125 31.988281 13.96875 C 31.746094 14.109375 31.601562 14.367188 31.605469 14.644531 L 31.605469 27.75 C 31.605469 29.035156 30.578125 30.0625 29.292969 30.0625 L 13.105469 30.0625 C 11.816406 30.0625 10.792969 29.035156 10.792969 27.75 L 10.792969 7.835938 C 10.804688 7.753906 10.804688 7.667969 10.792969 7.585938 L 10.792969 6.167969 C 10.792969 4.878906 11.816406 3.855469 13.105469 3.855469 L 22.9375 3.855469 C 23.007812 3.855469 23.054688 3.921875 23.125 3.929688 L 23.125 9.25 C 23.125 10.945312 24.515625 12.332031 26.207031 12.332031 L 32.375 12.332031 C 32.6875 12.332031 32.96875 12.144531 33.085938 11.855469 C 33.207031 11.570312 33.140625 11.238281 32.921875 11.015625 L 25.117188 3.214844 C 24.539062 2.636719 23.757812 2.3125 22.9375 2.3125 Z M 24.667969 4.945312 L 30.515625 10.792969 L 26.207031 10.792969 C 25.347656 10.792969 24.667969 10.109375 24.667969 9.25 Z M 23.894531 17.730469 C 23.617188 17.726562 23.359375 17.871094 23.21875 18.113281 C 23.078125 18.351562 23.078125 18.648438 23.21875 18.886719 C 23.359375 19.128906 23.617188 19.273438 23.894531 19.269531 L 25.890625 19.269531 L 21.582031 23.578125 L 18.273438 20.265625 C 17.972656 19.964844 17.484375 19.964844 17.183594 20.265625 L 13.328125 24.121094 C 13.128906 24.316406 13.046875 24.601562 13.117188 24.871094 C 13.1875 25.140625 13.398438 25.351562 13.667969 25.421875 C 13.941406 25.496094 14.226562 25.414062 14.421875 25.210938 L 17.730469 21.902344 L 21.039062 25.210938 C 21.339844 25.511719 21.828125 25.511719 22.128906 25.210938 L 26.980469 20.359375 L 26.980469 22.355469 C 26.976562 22.632812 27.121094 22.890625 27.363281 23.03125 C 27.601562 23.171875 27.898438 23.171875 28.136719 23.03125 C 28.378906 22.890625 28.523438 22.632812 28.519531 22.355469 L 28.519531 18.5 C 28.519531 18.074219 28.175781 17.730469 27.75 17.730469 Z M 23.894531 17.730469 " />
    </g>
</svg>