<?xml version="1.0" encoding="UTF-8"?>
<svg xmlns="http://www.w3.org/2000/svg" xmlns:xlink="http://www.w3.org/1999/xlink" width="36pt" height="36pt" viewBox="0 0 36 36" version="1.1">
<g id="surface41982">
<path style=" stroke:none;fill-rule:nonzero;fill:rgb(0%,0%,0%);fill-opacity:1;" d="M 9.375 3 C 7.515625 3 6 4.515625 6 6.375 L 6 29.625 C 6 31.484375 7.515625 33 9.375 33 L 26.625 33 C 28.484375 33 30 31.484375 30 29.625 L 30 13.875 C 30 13.5625 29.875 13.28125 29.671875 13.078125 L 19.921875 3.328125 C 19.71875 3.125 19.4375 3 19.125 3 Z M 9.375 5.25 L 18 5.25 L 18 11.625 C 18 13.484375 19.515625 15 21.375 15 L 27.75 15 L 27.75 29.625 C 27.75 30.246094 27.246094 30.75 26.625 30.75 L 9.375 30.75 C 8.753906 30.75 8.25 30.246094 8.25 29.625 L 8.25 6.375 C 8.25 5.753906 8.753906 5.25 9.375 5.25 Z M 20.25 6.839844 L 26.160156 12.75 L 21.375 12.75 C 20.753906 12.75 20.25 12.246094 20.25 11.625 Z M 24 18.75 C 23.210938 18.75 22.554688 19.367188 22.503906 20.15625 L 19.5 23.160156 L 17.246094 20.90625 C 17.195312 20.117188 16.539062 19.5 15.75 19.5 C 14.960938 19.5 14.304688 20.117188 14.253906 20.90625 L 11.90625 23.253906 C 11.105469 23.316406 10.492188 23.996094 10.519531 24.796875 C 10.542969 25.601562 11.195312 26.242188 12 26.25 C 12.789062 26.25 13.445312 25.632812 13.496094 24.84375 L 15.75 22.589844 L 18.003906 24.84375 C 18.054688 25.632812 18.710938 26.25 19.5 26.25 C 20.289062 26.25 20.945312 25.632812 20.996094 24.84375 L 24.09375 21.746094 C 24.894531 21.683594 25.507812 21.003906 25.480469 20.203125 C 25.457031 19.398438 24.804688 18.757812 24 18.75 Z M 24 18.75 "/>
</g>
</svg>
