<svg xmlns="http://www.w3.org/2000/svg" xmlns:xlink="http://www.w3.org/1999/xlink" width="50" height="50" version="1.1"
    viewBox="0 0 37.5 37.5">
    <g id="surface13545">
        <path style="stroke:none;fill-rule:nonzero;fill:#fff;fill-opacity:1"
            d="M 18.5 2.429688 C 17.777344 2.429688 17.050781 2.628906 16.417969 3.035156 L 5.628906 9.957031 C 4.523438 10.664062 3.855469 11.890625 3.855469 13.203125 L 3.855469 30.0625 C 3.855469 32.183594 5.589844 33.917969 7.707031 33.917969 L 29.292969 33.917969 C 31.410156 33.917969 33.144531 32.183594 33.144531 30.0625 L 33.144531 13.203125 C 33.144531 11.890625 32.476562 10.664062 31.371094 9.957031 L 20.582031 3.035156 C 19.949219 2.628906 19.222656 2.429688 18.5 2.429688 Z M 18.5 3.96875 C 18.933594 3.96875 19.367188 4.089844 19.75 4.335938 L 30.542969 11.253906 C 31.203125 11.679688 31.605469 12.414062 31.605469 13.203125 L 31.605469 30.0625 C 31.605469 31.347656 30.578125 32.375 29.292969 32.375 L 7.707031 32.375 C 6.421875 32.375 5.394531 31.347656 5.394531 30.0625 L 5.394531 13.203125 C 5.394531 12.414062 5.796875 11.679688 6.460938 11.253906 L 17.25 4.335938 C 17.632812 4.089844 18.066406 3.96875 18.5 3.96875 Z M 18.488281 10.011719 C 18.0625 10.015625 17.722656 10.367188 17.730469 10.792969 L 17.730469 12.398438 C 15.265625 12.683594 13.597656 14.210938 13.597656 16.308594 C 13.597656 18.3125 14.820312 19.59375 17.648438 20.210938 L 19.214844 20.554688 C 21.171875 20.984375 21.953125 21.769531 21.953125 22.953125 C 21.953125 24.339844 20.5625 25.347656 18.644531 25.347656 C 16.863281 25.347656 15.476562 24.664062 15.042969 23.207031 C 14.910156 22.738281 14.632812 22.511719 14.195312 22.511719 C 13.695312 22.511719 13.382812 22.863281 13.382812 23.421875 C 13.382812 23.628906 13.421875 23.84375 13.480469 24.039062 C 13.953125 25.558594 15.511719 26.667969 17.730469 26.886719 L 17.730469 28.519531 C 17.726562 28.796875 17.871094 29.058594 18.113281 29.199219 C 18.351562 29.335938 18.648438 29.335938 18.886719 29.199219 C 19.128906 29.058594 19.273438 28.796875 19.269531 28.519531 L 19.269531 26.898438 C 22.015625 26.667969 23.761719 25.09375 23.761719 22.6875 C 23.761719 20.691406 22.597656 19.515625 19.652344 18.871094 L 18.089844 18.527344 C 16.160156 18.105469 15.40625 17.34375 15.40625 16.226562 C 15.40625 14.789062 16.765625 13.929688 18.527344 13.929688 C 20.054688 13.929688 21.21875 14.554688 21.707031 15.984375 C 21.867188 16.433594 22.140625 16.667969 22.589844 16.667969 C 23.058594 16.667969 23.394531 16.355469 23.394531 15.878906 C 23.394531 15.691406 23.371094 15.542969 23.34375 15.4375 C 22.886719 13.71875 21.300781 12.597656 19.269531 12.386719 L 19.269531 10.792969 C 19.273438 10.582031 19.191406 10.382812 19.042969 10.234375 C 18.898438 10.089844 18.695312 10.007812 18.488281 10.011719 Z M 18.488281 10.011719" />
    </g>
</svg>