<svg xmlns="http://www.w3.org/2000/svg" xmlns:xlink="http://www.w3.org/1999/xlink" width="48" height="48" version="1.1" viewBox="0 0 36 36"><g id="surface45799"><path style="stroke:none;fill-rule:nonzero;fill:#000;fill-opacity:1" d="M 18 2.363281 C 17.296875 2.363281 16.589844 2.558594 15.976562 2.953125 L 5.476562 9.6875 C 4.402344 10.378906 3.75 11.570312 3.75 12.84375 L 3.75 29.25 C 3.75 31.3125 5.4375 33 7.5 33 L 28.5 33 C 30.5625 33 32.25 31.3125 32.25 29.25 L 32.25 12.84375 C 32.25 11.570312 31.597656 10.378906 30.523438 9.6875 L 20.023438 2.953125 C 19.410156 2.558594 18.703125 2.363281 18 2.363281 Z M 18 3.859375 C 18.421875 3.859375 18.84375 3.980469 19.214844 4.21875 L 29.714844 10.949219 C 30.359375 11.363281 30.75 12.078125 30.75 12.84375 L 30.75 29.25 C 30.75 30.5 29.75 31.5 28.5 31.5 L 7.5 31.5 C 6.25 31.5 5.25 30.5 5.25 29.25 L 5.25 12.84375 C 5.25 12.078125 5.640625 11.363281 6.285156 10.949219 L 16.785156 4.21875 C 17.15625 3.980469 17.578125 3.859375 18 3.859375 Z M 17.988281 9.738281 C 17.574219 9.746094 17.246094 10.085938 17.25 10.5 L 17.25 12.0625 C 14.851562 12.339844 13.230469 13.828125 13.230469 15.867188 C 13.230469 17.820312 14.417969 19.066406 17.171875 19.664062 L 18.695312 19.996094 C 20.597656 20.417969 21.359375 21.179688 21.359375 22.332031 C 21.359375 23.683594 20.007812 24.664062 18.140625 24.664062 C 16.410156 24.664062 15.058594 24 14.636719 22.578125 C 14.503906 22.121094 14.238281 21.902344 13.808594 21.902344 C 13.324219 21.902344 13.019531 22.246094 13.019531 22.789062 C 13.019531 22.988281 13.058594 23.199219 13.113281 23.390625 C 13.574219 24.867188 15.09375 25.945312 17.25 26.160156 L 17.25 27.75 C 17.246094 28.019531 17.386719 28.273438 17.621094 28.410156 C 17.855469 28.542969 18.144531 28.542969 18.378906 28.410156 C 18.613281 28.273438 18.753906 28.019531 18.75 27.75 L 18.75 26.171875 C 21.421875 25.945312 23.121094 24.417969 23.121094 22.074219 C 23.121094 20.132812 21.988281 18.988281 19.121094 18.359375 L 17.601562 18.027344 C 15.722656 17.617188 14.988281 16.875 14.988281 15.789062 C 14.988281 14.390625 16.3125 13.550781 18.027344 13.550781 C 19.511719 13.550781 20.644531 14.160156 21.121094 15.550781 C 21.273438 15.992188 21.542969 16.21875 21.980469 16.21875 C 22.4375 16.21875 22.761719 15.914062 22.761719 15.449219 C 22.761719 15.265625 22.742188 15.125 22.710938 15.019531 C 22.265625 13.347656 20.726562 12.257812 18.75 12.050781 L 18.75 10.5 C 18.753906 10.296875 18.671875 10.101562 18.53125 9.957031 C 18.386719 9.816406 18.191406 9.738281 17.988281 9.738281 Z M 17.988281 9.738281"/></g></svg>