<?xml version="1.0" encoding="UTF-8"?>
<svg xmlns="http://www.w3.org/2000/svg" xmlns:xlink="http://www.w3.org/1999/xlink" width="36pt" height="36pt"
    viewBox="0 0 36 36" version="1.1">
    <g id="surface46499">
        <path style=" stroke:none;fill-rule:nonzero;fill:rgb(0%,0%,0%);fill-opacity:1;"
            d="M 16.875 0.75 C 15.847656 0.75 15 1.597656 15 2.625 L 15 4.902344 C 13.507812 5.242188 12.117188 5.824219 10.855469 6.617188 L 9.25 5.007812 C 8.523438 4.28125 7.324219 4.28125 6.597656 5.007812 L 5.007812 6.597656 C 4.28125 7.324219 4.28125 8.523438 5.007812 9.25 L 6.617188 10.855469 C 5.824219 12.117188 5.242188 13.507812 4.902344 15 L 2.625 15 C 1.597656 15 0.75 15.847656 0.75 16.875 L 0.75 19.125 C 0.75 20.152344 1.597656 21 2.625 21 L 4.902344 21 C 5.242188 22.492188 5.824219 23.882812 6.617188 25.144531 L 5.007812 26.75 C 4.28125 27.476562 4.28125 28.675781 5.007812 29.402344 L 6.597656 30.992188 C 7.320312 31.71875 8.523438 31.71875 9.25 30.992188 L 10.855469 29.386719 C 12.117188 30.175781 13.507812 30.753906 15 31.097656 L 15 33.375 C 15 34.398438 15.847656 35.25 16.875 35.25 L 19.125 35.25 C 20.148438 35.25 21 34.398438 21 33.375 L 21 31.097656 C 22.492188 30.757812 23.882812 30.175781 25.140625 29.386719 L 26.75 30.992188 C 27.476562 31.71875 28.675781 31.71875 29.402344 30.992188 L 30.992188 29.402344 C 31.71875 28.675781 31.71875 27.476562 30.992188 26.75 L 29.382812 25.144531 C 30.175781 23.882812 30.753906 22.492188 31.097656 21 L 33.375 21 C 34.398438 21 35.25 20.152344 35.25 19.125 L 35.25 16.875 C 35.25 15.847656 34.402344 15 33.375 15 L 31.097656 15 C 30.757812 13.507812 30.175781 12.117188 29.386719 10.855469 L 30.992188 9.25 C 31.71875 8.523438 31.71875 7.324219 30.992188 6.597656 L 29.402344 5.007812 C 28.679688 4.28125 27.476562 4.28125 26.75 5.007812 L 25.144531 6.617188 C 23.882812 5.824219 22.492188 5.242188 21 4.902344 L 21 2.625 C 21 1.597656 20.152344 0.75 19.125 0.75 Z M 16.875 2.25 L 19.125 2.25 C 19.339844 2.25 19.5 2.410156 19.5 2.625 L 19.5 5.460938 C 19.5 5.824219 19.761719 6.132812 20.117188 6.199219 C 21.855469 6.507812 23.460938 7.183594 24.851562 8.15625 C 25.148438 8.363281 25.554688 8.328125 25.808594 8.070312 L 27.8125 6.066406 C 27.964844 5.914062 28.1875 5.914062 28.339844 6.066406 L 29.933594 7.660156 C 30.085938 7.808594 30.085938 8.035156 29.933594 8.1875 L 27.929688 10.191406 C 27.671875 10.449219 27.636719 10.851562 27.84375 11.152344 C 28.816406 12.539062 29.492188 14.144531 29.800781 15.882812 C 29.867188 16.238281 30.175781 16.5 30.539062 16.5 L 33.375 16.5 C 33.589844 16.5 33.75 16.660156 33.75 16.875 L 33.75 19.125 C 33.75 19.339844 33.589844 19.5 33.375 19.5 L 30.539062 19.5 C 30.175781 19.5 29.863281 19.761719 29.800781 20.117188 C 29.492188 21.855469 28.8125 23.460938 27.84375 24.847656 C 27.636719 25.148438 27.671875 25.550781 27.929688 25.808594 L 29.929688 27.8125 C 29.929688 27.8125 29.933594 27.8125 29.933594 27.8125 C 30.085938 27.964844 30.085938 28.1875 29.929688 28.339844 L 28.339844 29.933594 C 28.1875 30.085938 27.964844 30.085938 27.8125 29.933594 L 25.808594 27.929688 C 25.550781 27.675781 25.148438 27.636719 24.847656 27.84375 C 23.460938 28.816406 21.855469 29.492188 20.117188 29.800781 C 19.761719 29.863281 19.5 30.175781 19.5 30.539062 L 19.5 33.375 C 19.5 33.589844 19.339844 33.75 19.125 33.75 L 16.875 33.75 C 16.660156 33.75 16.5 33.589844 16.5 33.375 L 16.5 30.539062 C 16.5 30.175781 16.238281 29.863281 15.878906 29.800781 C 14.144531 29.492188 12.539062 28.816406 11.148438 27.84375 C 10.851562 27.636719 10.445312 27.671875 10.191406 27.929688 L 8.1875 29.933594 C 8.035156 30.085938 7.8125 30.085938 7.660156 29.933594 L 6.066406 28.339844 C 5.914062 28.191406 5.914062 27.964844 6.066406 27.8125 L 8.070312 25.808594 C 8.328125 25.550781 8.363281 25.148438 8.15625 24.847656 C 7.183594 23.460938 6.507812 21.855469 6.199219 20.117188 C 6.132812 19.761719 5.824219 19.5 5.460938 19.5 L 2.625 19.5 C 2.410156 19.5 2.25 19.339844 2.25 19.125 L 2.25 16.875 C 2.25 16.660156 2.410156 16.5 2.625 16.5 L 5.460938 16.5 C 5.824219 16.5 6.132812 16.238281 6.199219 15.882812 C 6.507812 14.144531 7.183594 12.539062 8.15625 11.152344 C 8.363281 10.851562 8.328125 10.449219 8.070312 10.191406 L 6.066406 8.1875 C 5.914062 8.035156 5.914062 7.8125 6.066406 7.660156 L 7.660156 6.066406 C 7.808594 5.914062 8.035156 5.914062 8.1875 6.066406 L 10.191406 8.070312 C 10.449219 8.328125 10.851562 8.363281 11.152344 8.15625 C 12.539062 7.183594 14.144531 6.507812 15.882812 6.199219 C 16.238281 6.132812 16.5 5.824219 16.5 5.460938 L 16.5 2.625 C 16.5 2.410156 16.660156 2.25 16.875 2.25 Z M 18 10.5 C 13.867188 10.5 10.5 13.867188 10.5 18 C 10.5 22.132812 13.867188 25.5 18 25.5 C 22.132812 25.5 25.5 22.132812 25.5 18 C 25.5 13.867188 22.132812 10.5 18 10.5 Z M 18 12 C 21.324219 12 24 14.675781 24 18 C 24 21.324219 21.324219 24 18 24 C 14.675781 24 12 21.324219 12 18 C 12 14.675781 14.675781 12 18 12 Z M 18 12 " />
    </g>
</svg>