<svg xmlns="http://www.w3.org/2000/svg" xmlns:xlink="http://www.w3.org/1999/xlink" width="50" height="50" version="1.1" viewBox="0 0 37.5 37.5"><g id="surface13521"><path style="stroke:none;fill-rule:nonzero;fill:#fff;fill-opacity:1" d="M 17.34375 0.769531 C 16.289062 0.769531 15.417969 1.644531 15.417969 2.699219 L 15.417969 5.039062 C 13.882812 5.390625 12.453125 5.988281 11.160156 6.800781 L 9.507812 5.144531 C 8.757812 4.398438 7.527344 4.398438 6.78125 5.144531 L 5.144531 6.78125 C 4.398438 7.527344 4.398438 8.761719 5.144531 9.507812 L 6.800781 11.160156 C 5.984375 12.453125 5.390625 13.882812 5.039062 15.417969 L 2.699219 15.417969 C 1.644531 15.417969 0.769531 16.289062 0.769531 17.34375 L 0.769531 19.65625 C 0.769531 20.710938 1.644531 21.582031 2.699219 21.582031 L 5.039062 21.582031 C 5.390625 23.117188 5.988281 24.546875 6.800781 25.839844 L 5.144531 27.492188 C 4.398438 28.242188 4.398438 29.472656 5.144531 30.21875 L 6.78125 31.855469 C 7.523438 32.601562 8.761719 32.601562 9.507812 31.855469 L 11.160156 30.199219 C 12.453125 31.011719 13.882812 31.609375 15.414062 31.960938 L 15.414062 34.300781 C 15.414062 35.355469 16.285156 36.226562 17.34375 36.226562 L 19.65625 36.226562 C 20.710938 36.226562 21.582031 35.355469 21.582031 34.300781 L 21.582031 31.960938 C 23.117188 31.609375 24.546875 31.015625 25.839844 30.199219 L 27.492188 31.855469 C 28.238281 32.601562 29.472656 32.601562 30.21875 31.855469 L 31.851562 30.21875 C 32.597656 29.472656 32.597656 28.238281 31.851562 27.492188 L 30.199219 25.839844 C 31.011719 24.546875 31.609375 23.117188 31.960938 21.582031 L 34.300781 21.582031 C 35.355469 21.582031 36.226562 20.710938 36.226562 19.65625 L 36.226562 17.34375 C 36.230469 16.289062 35.355469 15.417969 34.300781 15.417969 L 31.960938 15.417969 C 31.609375 13.882812 31.011719 12.453125 30.199219 11.160156 L 31.855469 9.507812 C 32.601562 8.757812 32.601562 7.527344 31.855469 6.78125 L 30.21875 5.144531 C 29.476562 4.398438 28.238281 4.398438 27.492188 5.144531 L 25.839844 6.800781 C 24.546875 5.988281 23.117188 5.390625 21.582031 5.039062 L 21.582031 2.699219 C 21.582031 1.644531 20.710938 0.769531 19.65625 0.769531 Z M 17.34375 2.3125 L 19.65625 2.3125 C 19.878906 2.3125 20.042969 2.476562 20.042969 2.699219 L 20.042969 5.609375 C 20.042969 5.984375 20.308594 6.304688 20.675781 6.371094 C 22.460938 6.6875 24.109375 7.386719 25.542969 8.382812 C 25.847656 8.59375 26.261719 8.558594 26.527344 8.292969 L 28.585938 6.234375 C 28.742188 6.078125 28.972656 6.078125 29.128906 6.234375 L 30.765625 7.871094 C 30.921875 8.027344 30.921875 8.257812 30.765625 8.414062 L 28.707031 10.472656 C 28.441406 10.738281 28.40625 11.152344 28.617188 11.460938 C 29.613281 12.890625 30.3125 14.539062 30.628906 16.324219 C 30.695312 16.691406 31.015625 16.957031 31.390625 16.957031 L 34.300781 16.957031 C 34.523438 16.957031 34.6875 17.121094 34.6875 17.34375 L 34.6875 19.65625 C 34.6875 19.878906 34.523438 20.042969 34.300781 20.042969 L 31.386719 20.042969 C 31.015625 20.042969 30.695312 20.308594 30.628906 20.675781 C 30.3125 22.460938 29.613281 24.109375 28.617188 25.539062 C 28.402344 25.847656 28.441406 26.261719 28.703125 26.527344 L 30.761719 28.585938 C 30.761719 28.585938 30.761719 28.585938 30.765625 28.585938 C 30.921875 28.738281 30.917969 28.972656 30.761719 29.128906 L 29.128906 30.765625 C 28.972656 30.921875 28.742188 30.921875 28.585938 30.765625 L 26.523438 28.707031 C 26.261719 28.441406 25.847656 28.40625 25.539062 28.617188 C 24.109375 29.613281 22.460938 30.308594 20.675781 30.628906 C 20.308594 30.695312 20.039062 31.011719 20.039062 31.386719 L 20.039062 34.300781 C 20.039062 34.523438 19.875 34.6875 19.65625 34.6875 L 17.34375 34.6875 C 17.121094 34.6875 16.957031 34.523438 16.957031 34.300781 L 16.957031 31.386719 C 16.957031 31.015625 16.6875 30.695312 16.320312 30.628906 C 14.535156 30.3125 12.886719 29.613281 11.457031 28.617188 C 11.152344 28.40625 10.738281 28.441406 10.472656 28.707031 L 8.414062 30.765625 C 8.257812 30.921875 8.027344 30.921875 7.871094 30.765625 L 6.234375 29.128906 C 6.078125 28.972656 6.078125 28.742188 6.234375 28.585938 L 8.292969 26.527344 C 8.558594 26.261719 8.59375 25.847656 8.382812 25.539062 C 7.386719 24.109375 6.6875 22.460938 6.371094 20.675781 C 6.304688 20.308594 5.984375 20.042969 5.609375 20.042969 L 2.699219 20.042969 C 2.476562 20.042969 2.3125 19.878906 2.3125 19.65625 L 2.3125 17.34375 C 2.3125 17.121094 2.476562 16.957031 2.699219 16.957031 L 5.609375 16.957031 C 5.984375 16.957031 6.304688 16.691406 6.371094 16.324219 C 6.6875 14.539062 7.386719 12.890625 8.382812 11.460938 C 8.59375 11.152344 8.558594 10.738281 8.292969 10.472656 L 6.234375 8.414062 C 6.078125 8.261719 6.078125 8.027344 6.234375 7.871094 L 7.871094 6.234375 C 8.027344 6.078125 8.257812 6.078125 8.414062 6.234375 L 10.472656 8.292969 C 10.738281 8.558594 11.152344 8.59375 11.460938 8.382812 C 12.890625 7.386719 14.539062 6.6875 16.324219 6.371094 C 16.691406 6.304688 16.957031 5.984375 16.957031 5.609375 L 16.957031 2.699219 C 16.957031 2.476562 17.121094 2.3125 17.34375 2.3125 Z M 18.5 10.792969 C 14.25 10.792969 10.792969 14.25 10.792969 18.5 C 10.792969 22.75 14.25 26.207031 18.5 26.207031 C 22.75 26.207031 26.207031 22.75 26.207031 18.5 C 26.207031 14.25 22.75 10.792969 18.5 10.792969 Z M 18.5 12.332031 C 21.914062 12.332031 24.667969 15.085938 24.667969 18.5 C 24.667969 21.914062 21.914062 24.667969 18.5 24.667969 C 15.085938 24.667969 12.332031 21.914062 12.332031 18.5 C 12.332031 15.085938 15.085938 12.332031 18.5 12.332031 Z M 18.5 12.332031"/></g></svg>