<?xml version="1.0" encoding="UTF-8"?>
<svg xmlns="http://www.w3.org/2000/svg" xmlns:xlink="http://www.w3.org/1999/xlink" width="37.5pt" height="37.5pt"
    viewBox="0 0 37.5 37.5" version="1.1">
    <g id="surface21381">
        <path style=" stroke:none;fill-rule:nonzero;fill:rgb(96.862745%,100%,99.215686%);fill-opacity:1;"
            d="M 36.488281 19.644531 L 28.167969 16.972656 L 25.496094 8.652344 C 25.394531 8.347656 25.113281 8.140625 24.789062 8.140625 C 24.46875 8.140625 24.183594 8.347656 24.085938 8.652344 L 21.410156 16.972656 L 13.09375 19.644531 C 12.789062 19.742188 12.578125 20.027344 12.578125 20.351562 C 12.578125 20.671875 12.789062 20.957031 13.09375 21.054688 L 21.410156 23.726562 L 24.085938 32.046875 C 24.183594 32.351562 24.46875 32.558594 24.789062 32.558594 C 25.113281 32.558594 25.394531 32.351562 25.496094 32.046875 L 28.167969 23.726562 L 36.484375 21.054688 C 36.792969 20.957031 37 20.671875 37 20.351562 C 37 20.027344 36.792969 19.742188 36.488281 19.644531 Z M 1.246094 10.320312 L 7 12.242188 L 8.917969 17.996094 C 9.019531 18.296875 9.300781 18.5 9.621094 18.5 C 9.9375 18.5 10.222656 18.296875 10.320312 17.992188 L 12.238281 12.238281 L 17.992188 10.320312 C 18.296875 10.222656 18.5 9.9375 18.5 9.621094 C 18.5 9.300781 18.296875 9.019531 17.992188 8.917969 L 12.238281 7 L 10.320312 1.246094 C 10.222656 0.945312 9.9375 0.738281 9.621094 0.738281 C 9.300781 0.738281 9.019531 0.945312 8.917969 1.246094 L 7 7 L 1.246094 8.917969 C 0.945312 9.019531 0.738281 9.300781 0.738281 9.621094 C 0.738281 9.9375 0.945312 10.222656 1.246094 10.320312 Z M 12.8125 28.898438 L 8.722656 27.535156 L 7.363281 23.445312 C 7.261719 23.144531 6.980469 22.941406 6.660156 22.941406 C 6.339844 22.941406 6.058594 23.144531 5.957031 23.445312 L 4.59375 27.535156 L 0.507812 28.898438 C 0.203125 28.996094 0 29.28125 0 29.597656 C 0 29.917969 0.203125 30.199219 0.507812 30.300781 L 4.597656 31.664062 L 5.957031 35.753906 C 6.058594 36.054688 6.339844 36.257812 6.660156 36.257812 C 6.980469 36.257812 7.261719 36.054688 7.363281 35.75 L 8.722656 31.664062 L 12.8125 30.300781 C 13.117188 30.199219 13.320312 29.917969 13.320312 29.597656 C 13.320312 29.28125 13.117188 28.996094 12.8125 28.898438 Z M 12.8125 28.898438 " />
    </g>
</svg>