<svg xmlns="http://www.w3.org/2000/svg" xmlns:xlink="http://www.w3.org/1999/xlink" width="50" height="50" version="1.1"
    viewBox="0 0 37.5 37.5">
    <g id="surface13527">
        <path style="stroke:none;fill-rule:nonzero;fill:#fff;fill-opacity:1"
            d="M 18.5 2.3125 C 13.925781 2.3125 9.789062 4.21875 6.84375 7.277344 L 7.523438 3.480469 C 7.570312 3.25 7.507812 3.011719 7.355469 2.832031 C 7.199219 2.652344 6.972656 2.554688 6.738281 2.5625 C 6.371094 2.578125 6.066406 2.847656 6.007812 3.207031 L 4.941406 9.132812 C 4.902344 9.359375 4.960938 9.589844 5.109375 9.765625 C 5.257812 9.941406 5.472656 10.042969 5.703125 10.042969 L 11.722656 10.019531 C 12 10.023438 12.257812 9.875 12.398438 9.636719 C 12.539062 9.394531 12.535156 9.097656 12.394531 8.859375 C 12.253906 8.621094 11.996094 8.472656 11.71875 8.480469 L 7.816406 8.492188 C 10.488281 5.636719 14.28125 3.855469 18.5 3.855469 C 26.601562 3.855469 33.144531 10.398438 33.144531 18.5 C 33.144531 26.601562 26.601562 33.144531 18.5 33.144531 C 18.136719 33.144531 17.769531 33.132812 17.414062 33.101562 C 16.988281 33.066406 16.617188 33.382812 16.582031 33.808594 C 16.546875 34.230469 16.863281 34.605469 17.289062 34.640625 C 17.6875 34.671875 18.09375 34.6875 18.5 34.6875 C 27.433594 34.6875 34.6875 27.433594 34.6875 18.5 C 34.6875 9.566406 27.433594 2.3125 18.5 2.3125 Z M 18.488281 9.238281 C 18.0625 9.246094 17.722656 9.59375 17.730469 10.019531 L 17.730469 11.5625 C 15.230469 11.851562 13.539062 13.398438 13.539062 15.523438 C 13.539062 17.550781 14.777344 18.851562 17.640625 19.472656 L 19.226562 19.820312 C 21.207031 20.253906 22 21.046875 22 22.246094 C 22 23.652344 20.59375 24.671875 18.652344 24.671875 C 16.847656 24.671875 15.441406 23.980469 15.007812 22.503906 C 14.867188 22.027344 14.589844 21.800781 14.144531 21.800781 C 13.640625 21.800781 13.324219 22.15625 13.324219 22.722656 C 13.324219 22.929688 13.363281 23.148438 13.421875 23.347656 C 13.898438 24.886719 15.484375 26.007812 17.730469 26.234375 L 17.730469 27.75 C 17.726562 28.027344 17.871094 28.285156 18.113281 28.425781 C 18.351562 28.566406 18.648438 28.566406 18.886719 28.425781 C 19.128906 28.285156 19.273438 28.027344 19.269531 27.75 L 19.269531 26.246094 C 22.058594 26.011719 23.828125 24.421875 23.828125 21.980469 C 23.828125 19.960938 22.652344 18.773438 19.671875 18.117188 L 18.085938 17.769531 C 16.136719 17.347656 15.371094 16.574219 15.371094 15.445312 C 15.371094 13.988281 16.75 13.117188 18.53125 13.117188 C 20.078125 13.117188 21.253906 13.75 21.75 15.195312 C 21.910156 15.652344 22.1875 15.890625 22.640625 15.890625 C 23.117188 15.890625 23.453125 15.574219 23.453125 15.085938 C 23.453125 14.898438 23.433594 14.75 23.40625 14.640625 C 22.941406 12.902344 21.332031 11.765625 19.269531 11.554688 L 19.269531 10.019531 C 19.273438 9.8125 19.191406 9.613281 19.042969 9.464844 C 18.898438 9.316406 18.695312 9.234375 18.488281 9.238281 Z M 3.140625 19.261719 C 2.921875 19.265625 2.714844 19.363281 2.570312 19.527344 C 2.429688 19.691406 2.363281 19.910156 2.390625 20.125 C 2.476562 20.929688 2.617188 21.722656 2.820312 22.496094 C 2.878906 22.773438 3.085938 22.992188 3.359375 23.070312 C 3.628906 23.148438 3.921875 23.074219 4.121094 22.871094 C 4.320312 22.667969 4.390625 22.375 4.308594 22.105469 C 4.128906 21.410156 4 20.691406 3.921875 19.960938 C 3.886719 19.558594 3.542969 19.253906 3.140625 19.261719 Z M 4.628906 24.417969 C 4.355469 24.410156 4.101562 24.546875 3.953125 24.777344 C 3.808594 25.003906 3.792969 25.292969 3.917969 25.535156 C 4.273438 26.261719 4.675781 26.960938 5.132812 27.617188 C 5.285156 27.855469 5.554688 27.988281 5.835938 27.96875 C 6.117188 27.949219 6.363281 27.777344 6.480469 27.523438 C 6.597656 27.265625 6.566406 26.96875 6.398438 26.742188 C 5.992188 26.148438 5.625 25.519531 5.300781 24.859375 C 5.179688 24.597656 4.917969 24.425781 4.628906 24.417969 Z M 7.734375 28.761719 C 7.421875 28.761719 7.140625 28.953125 7.023438 29.246094 C 6.90625 29.535156 6.980469 29.871094 7.207031 30.085938 C 7.785156 30.65625 8.398438 31.167969 9.042969 31.632812 C 9.265625 31.800781 9.5625 31.835938 9.816406 31.722656 C 10.074219 31.613281 10.246094 31.371094 10.273438 31.09375 C 10.300781 30.816406 10.175781 30.546875 9.949219 30.386719 C 9.359375 29.957031 8.804688 29.496094 8.289062 28.988281 C 8.140625 28.839844 7.941406 28.757812 7.734375 28.761719 Z M 12.109375 31.777344 C 11.753906 31.796875 11.457031 32.058594 11.390625 32.410156 C 11.328125 32.761719 11.515625 33.113281 11.84375 33.253906 C 12.574219 33.585938 13.328125 33.863281 14.105469 34.082031 C 14.515625 34.195312 14.941406 33.957031 15.054688 33.546875 C 15.171875 33.136719 14.933594 32.710938 14.523438 32.597656 C 13.820312 32.398438 13.140625 32.152344 12.484375 31.851562 C 12.390625 31.808594 12.289062 31.78125 12.1875 31.777344 C 12.160156 31.777344 12.132812 31.777344 12.109375 31.777344 Z M 12.109375 31.777344" />
    </g>
</svg>