<?xml version="1.0" encoding="UTF-8"?>
<svg xmlns="http://www.w3.org/2000/svg" xmlns:xlink="http://www.w3.org/1999/xlink" width="36pt" height="36pt"
    viewBox="0 0 36 36" version="1.1">
    <g id="surface46088">
        <path style=" stroke:none;fill-rule:nonzero;fill:rgb(0%,0%,0%);fill-opacity:1;"
            d="M 18 2.25 C 13.550781 2.25 9.523438 4.105469 6.65625 7.082031 L 7.320312 3.386719 C 7.367188 3.164062 7.304688 2.929688 7.15625 2.757812 C 7.007812 2.582031 6.785156 2.484375 6.554688 2.496094 C 6.199219 2.507812 5.902344 2.769531 5.84375 3.121094 L 4.808594 8.886719 C 4.769531 9.105469 4.828125 9.332031 4.972656 9.503906 C 5.113281 9.671875 5.324219 9.769531 5.546875 9.769531 L 11.40625 9.75 C 11.675781 9.753906 11.929688 9.609375 12.0625 9.375 C 12.199219 9.140625 12.199219 8.851562 12.058594 8.621094 C 11.921875 8.386719 11.671875 8.246094 11.402344 8.25 L 7.605469 8.261719 C 10.207031 5.484375 13.894531 3.75 18 3.75 C 25.882812 3.75 32.25 10.117188 32.25 18 C 32.25 25.882812 25.882812 32.25 18 32.25 C 17.644531 32.25 17.289062 32.234375 16.945312 32.207031 C 16.53125 32.171875 16.167969 32.480469 16.132812 32.894531 C 16.101562 33.308594 16.40625 33.667969 16.820312 33.703125 C 17.210938 33.734375 17.605469 33.75 18 33.75 C 26.691406 33.75 33.75 26.691406 33.75 18 C 33.75 9.308594 26.691406 2.25 18 2.25 Z M 17.988281 8.988281 C 17.574219 8.996094 17.246094 9.335938 17.25 9.75 L 17.25 11.25 C 14.820312 11.53125 13.175781 13.035156 13.175781 15.101562 C 13.175781 17.078125 14.378906 18.339844 17.164062 18.949219 L 18.707031 19.285156 C 20.632812 19.707031 21.402344 20.480469 21.402344 21.644531 C 21.40625 23.011719 20.035156 24.003906 18.144531 24.003906 C 16.394531 24.003906 15.023438 23.332031 14.601562 21.894531 C 14.464844 21.433594 14.195312 21.210938 13.761719 21.210938 C 13.269531 21.210938 12.960938 21.558594 12.960938 22.105469 C 12.960938 22.308594 13 22.523438 13.058594 22.714844 C 13.523438 24.214844 15.066406 25.304688 17.25 25.523438 L 17.25 27 C 17.246094 27.269531 17.386719 27.523438 17.621094 27.660156 C 17.855469 27.792969 18.144531 27.792969 18.378906 27.660156 C 18.613281 27.523438 18.753906 27.269531 18.75 27 L 18.75 25.535156 C 21.460938 25.308594 23.183594 23.761719 23.183594 21.386719 C 23.1875 19.421875 22.039062 18.265625 19.140625 17.628906 L 17.597656 17.292969 C 15.699219 16.878906 14.957031 16.125 14.957031 15.027344 C 14.957031 13.609375 16.296875 12.761719 18.03125 12.761719 C 19.535156 12.761719 20.679688 13.378906 21.164062 14.785156 C 21.316406 15.230469 21.585938 15.460938 22.03125 15.460938 C 22.492188 15.460938 22.820312 15.152344 22.820312 14.679688 C 22.820312 14.496094 22.800781 14.351562 22.773438 14.246094 C 22.320312 12.550781 20.753906 11.445312 18.75 11.242188 L 18.75 9.75 C 18.753906 9.546875 18.671875 9.351562 18.53125 9.207031 C 18.386719 9.066406 18.191406 8.988281 17.988281 8.988281 Z M 3.054688 18.742188 C 2.84375 18.746094 2.640625 18.839844 2.503906 19 C 2.363281 19.160156 2.300781 19.371094 2.324219 19.582031 C 2.40625 20.363281 2.546875 21.136719 2.742188 21.886719 C 2.804688 22.15625 3.003906 22.371094 3.269531 22.445312 C 3.53125 22.523438 3.816406 22.449219 4.011719 22.253906 C 4.203125 22.058594 4.273438 21.769531 4.195312 21.507812 C 4.015625 20.832031 3.890625 20.132812 3.816406 19.421875 C 3.78125 19.03125 3.449219 18.734375 3.054688 18.742188 Z M 4.503906 23.757812 C 4.238281 23.75 3.988281 23.882812 3.847656 24.105469 C 3.707031 24.328125 3.691406 24.609375 3.8125 24.847656 C 4.15625 25.554688 4.550781 26.230469 4.992188 26.871094 C 5.140625 27.101562 5.402344 27.230469 5.675781 27.214844 C 5.949219 27.195312 6.191406 27.027344 6.304688 26.777344 C 6.421875 26.53125 6.390625 26.238281 6.226562 26.019531 C 5.828125 25.445312 5.472656 24.832031 5.160156 24.1875 C 5.039062 23.933594 4.785156 23.765625 4.503906 23.757812 Z M 7.523438 27.984375 C 7.21875 27.984375 6.945312 28.171875 6.835938 28.457031 C 6.722656 28.738281 6.792969 29.0625 7.011719 29.273438 C 7.574219 29.828125 8.171875 30.324219 8.800781 30.777344 C 9.015625 30.941406 9.304688 30.976562 9.550781 30.867188 C 9.800781 30.757812 9.96875 30.523438 9.996094 30.253906 C 10.023438 29.984375 9.902344 29.71875 9.679688 29.566406 C 9.105469 29.148438 8.566406 28.699219 8.0625 28.207031 C 7.921875 28.0625 7.726562 27.980469 7.523438 27.984375 Z M 11.78125 30.917969 C 11.433594 30.9375 11.144531 31.191406 11.085938 31.535156 C 11.023438 31.878906 11.203125 32.21875 11.523438 32.355469 C 12.234375 32.679688 12.96875 32.945312 13.722656 33.160156 C 14.121094 33.273438 14.539062 33.039062 14.648438 32.640625 C 14.761719 32.242188 14.527344 31.828125 14.128906 31.714844 C 13.445312 31.523438 12.785156 31.28125 12.144531 30.988281 C 12.054688 30.945312 11.957031 30.921875 11.855469 30.917969 C 11.832031 30.917969 11.804688 30.917969 11.78125 30.917969 Z M 11.78125 30.917969 " />
    </g>
</svg>