<?xml version="1.0" encoding="UTF-8"?>
<svg xmlns="http://www.w3.org/2000/svg" xmlns:xlink="http://www.w3.org/1999/xlink" width="36pt" height="36pt" viewBox="0 0 36 36" version="1.1">
<g id="surface22908">
<path style=" stroke:none;fill-rule:nonzero;fill:rgb(0%,0%,0%);fill-opacity:1;" d="M 22.898438 3.035156 C 22.597656 3.039062 22.328125 3.226562 22.214844 3.503906 L 21.367188 5.542969 C 16.371094 3.675781 12.710938 4.34375 10.382812 5.679688 C 7.941406 7.082031 6.882812 9.117188 6.882812 9.117188 C 6.761719 9.355469 6.773438 9.644531 6.917969 9.867188 C 6.917969 9.867188 7.550781 10.828125 9.152344 12.128906 C 10.753906 13.429688 13.375 15.136719 17.476562 16.84375 C 21.578125 18.550781 24.632812 19.207031 26.6875 19.425781 C 28.738281 19.648438 29.867188 19.417969 29.863281 19.417969 C 30.125 19.363281 30.339844 19.171875 30.421875 18.917969 C 30.421875 18.917969 30.996094 17.121094 30.566406 14.777344 C 30.140625 12.433594 28.679688 9.484375 24.855469 7.160156 C 24.628906 7.015625 24.339844 7.007812 24.101562 7.136719 C 23.863281 7.265625 23.714844 7.511719 23.710938 7.78125 C 23.703125 8.050781 23.84375 8.304688 24.078125 8.441406 C 27.570312 10.566406 28.730469 13.058594 29.089844 15.046875 C 29.359375 16.511719 29.203125 17.441406 29.089844 17.949219 C 28.855469 17.988281 28.421875 18.105469 26.847656 17.933594 C 24.949219 17.730469 22.035156 17.117188 18.050781 15.460938 C 14.066406 13.800781 11.578125 12.164062 10.097656 10.964844 C 8.871094 9.96875 8.652344 9.582031 8.511719 9.386719 C 8.8125 8.90625 9.511719 7.910156 11.128906 6.980469 C 13.199219 5.792969 16.453125 5.046875 21.511719 7.152344 C 21.894531 7.308594 22.332031 7.128906 22.492188 6.746094 L 23.601562 4.082031 C 23.703125 3.847656 23.679688 3.578125 23.535156 3.363281 C 23.394531 3.152344 23.152344 3.027344 22.898438 3.035156 Z M 16.601562 18.164062 C 16.300781 18.167969 16.03125 18.355469 15.917969 18.632812 L 11.464844 29.328125 C 10.195312 29.398438 8.933594 29.558594 7.699219 29.914062 L 3.542969 31.101562 C 3.277344 31.171875 3.070312 31.375 3 31.640625 C 2.933594 31.90625 3.011719 32.1875 3.210938 32.375 C 3.410156 32.5625 3.695312 32.628906 3.957031 32.542969 L 8.113281 31.355469 C 11.40625 30.410156 14.953125 30.578125 18.132812 31.824219 C 21.097656 32.984375 24.355469 33.296875 27.503906 32.714844 L 32.386719 31.816406 C 32.652344 31.769531 32.875 31.585938 32.964844 31.332031 C 33.054688 31.078125 33.003906 30.792969 32.828125 30.589844 C 32.652344 30.382812 32.378906 30.289062 32.113281 30.339844 L 27.230469 31.242188 C 24.359375 31.769531 21.382812 31.484375 18.679688 30.425781 C 16.898438 29.730469 15.011719 29.347656 13.113281 29.273438 L 17.304688 19.210938 C 17.40625 18.976562 17.378906 18.707031 17.238281 18.496094 C 17.097656 18.28125 16.855469 18.15625 16.601562 18.164062 Z M 16.601562 18.164062 "/>
</g>
</svg>
